<?xml version="1.0" encoding="utf-8"?>
<svg xmlns="http://www.w3.org/2000/svg" xmlns:xlink="http://www.w3.org/1999/xlink" width="600" height="400" viewBox="0 0 2400 1600">
<defs>
  <clipPath id="clip850">
    <rect x="0" y="0" width="2400" height="1600"/>
  </clipPath>
</defs>
<path clip-path="url(#clip850)" d="M0 1600 L2400 1600 L2400 0 L0 0  Z" fill="#ffffff" fill-rule="evenodd" fill-opacity="1"/>
<defs>
  <clipPath id="clip851">
    <rect x="480" y="0" width="1681" height="1600"/>
  </clipPath>
</defs>
<path clip-path="url(#clip850)" d="M279.704 1423.18 L2352.76 1423.18 L2352.76 123.472 L279.704 123.472  Z" fill="#ffffff" fill-rule="evenodd" fill-opacity="1"/>
<defs>
  <clipPath id="clip852">
    <rect x="279" y="123" width="2074" height="1301"/>
  </clipPath>
</defs>
<polyline clip-path="url(#clip852)" style="stroke:#000000; stroke-linecap:round; stroke-linejoin:round; stroke-width:2; stroke-opacity:0.1; fill:none" points="649.625,1423.18 649.625,123.472 "/>
<polyline clip-path="url(#clip852)" style="stroke:#000000; stroke-linecap:round; stroke-linejoin:round; stroke-width:2; stroke-opacity:0.1; fill:none" points="1067.69,1423.18 1067.69,123.472 "/>
<polyline clip-path="url(#clip852)" style="stroke:#000000; stroke-linecap:round; stroke-linejoin:round; stroke-width:2; stroke-opacity:0.1; fill:none" points="1485.76,1423.18 1485.76,123.472 "/>
<polyline clip-path="url(#clip852)" style="stroke:#000000; stroke-linecap:round; stroke-linejoin:round; stroke-width:2; stroke-opacity:0.1; fill:none" points="1903.82,1423.18 1903.82,123.472 "/>
<polyline clip-path="url(#clip852)" style="stroke:#000000; stroke-linecap:round; stroke-linejoin:round; stroke-width:2; stroke-opacity:0.1; fill:none" points="2321.89,1423.18 2321.89,123.472 "/>
<polyline clip-path="url(#clip852)" style="stroke:#000000; stroke-linecap:round; stroke-linejoin:round; stroke-width:2; stroke-opacity:0.1; fill:none" points="279.704,1268.46 2352.76,1268.46 "/>
<polyline clip-path="url(#clip852)" style="stroke:#000000; stroke-linecap:round; stroke-linejoin:round; stroke-width:2; stroke-opacity:0.1; fill:none" points="279.704,999.015 2352.76,999.015 "/>
<polyline clip-path="url(#clip852)" style="stroke:#000000; stroke-linecap:round; stroke-linejoin:round; stroke-width:2; stroke-opacity:0.1; fill:none" points="279.704,729.566 2352.76,729.566 "/>
<polyline clip-path="url(#clip852)" style="stroke:#000000; stroke-linecap:round; stroke-linejoin:round; stroke-width:2; stroke-opacity:0.1; fill:none" points="279.704,460.117 2352.76,460.117 "/>
<polyline clip-path="url(#clip852)" style="stroke:#000000; stroke-linecap:round; stroke-linejoin:round; stroke-width:2; stroke-opacity:0.1; fill:none" points="279.704,190.668 2352.76,190.668 "/>
<polyline clip-path="url(#clip850)" style="stroke:#000000; stroke-linecap:round; stroke-linejoin:round; stroke-width:4; stroke-opacity:1; fill:none" points="279.704,1423.18 2352.76,1423.18 "/>
<polyline clip-path="url(#clip850)" style="stroke:#000000; stroke-linecap:round; stroke-linejoin:round; stroke-width:4; stroke-opacity:1; fill:none" points="649.625,1423.18 649.625,1404.28 "/>
<polyline clip-path="url(#clip850)" style="stroke:#000000; stroke-linecap:round; stroke-linejoin:round; stroke-width:4; stroke-opacity:1; fill:none" points="1067.69,1423.18 1067.69,1404.28 "/>
<polyline clip-path="url(#clip850)" style="stroke:#000000; stroke-linecap:round; stroke-linejoin:round; stroke-width:4; stroke-opacity:1; fill:none" points="1485.76,1423.18 1485.76,1404.28 "/>
<polyline clip-path="url(#clip850)" style="stroke:#000000; stroke-linecap:round; stroke-linejoin:round; stroke-width:4; stroke-opacity:1; fill:none" points="1903.82,1423.18 1903.82,1404.28 "/>
<polyline clip-path="url(#clip850)" style="stroke:#000000; stroke-linecap:round; stroke-linejoin:round; stroke-width:4; stroke-opacity:1; fill:none" points="2321.89,1423.18 2321.89,1404.28 "/>
<path clip-path="url(#clip850)" d="M598.236 1481.64 L614.556 1481.64 L614.556 1485.58 L592.611 1485.58 L592.611 1481.64 Q595.273 1478.89 599.857 1474.26 Q604.463 1469.61 605.644 1468.27 Q607.889 1465.74 608.769 1464.01 Q609.671 1462.25 609.671 1460.56 Q609.671 1457.8 607.727 1456.07 Q605.806 1454.33 602.704 1454.33 Q600.505 1454.33 598.051 1455.09 Q595.62 1455.86 592.843 1457.41 L592.843 1452.69 Q595.667 1451.55 598.12 1450.97 Q600.574 1450.39 602.611 1450.39 Q607.982 1450.39 611.176 1453.08 Q614.37 1455.77 614.37 1460.26 Q614.37 1462.39 613.56 1464.31 Q612.773 1466.2 610.667 1468.8 Q610.088 1469.47 606.986 1472.69 Q603.884 1475.88 598.236 1481.64 Z" fill="#000000" fill-rule="nonzero" fill-opacity="1" /><path clip-path="url(#clip850)" d="M634.37 1454.1 Q630.759 1454.1 628.93 1457.66 Q627.125 1461.2 627.125 1468.33 Q627.125 1475.44 628.93 1479.01 Q630.759 1482.55 634.37 1482.55 Q638.004 1482.55 639.81 1479.01 Q641.639 1475.44 641.639 1468.33 Q641.639 1461.2 639.81 1457.66 Q638.004 1454.1 634.37 1454.1 M634.37 1450.39 Q640.18 1450.39 643.236 1455 Q646.315 1459.58 646.315 1468.33 Q646.315 1477.06 643.236 1481.67 Q640.18 1486.25 634.37 1486.25 Q628.56 1486.25 625.481 1481.67 Q622.426 1477.06 622.426 1468.33 Q622.426 1459.58 625.481 1455 Q628.56 1450.39 634.37 1450.39 Z" fill="#000000" fill-rule="nonzero" fill-opacity="1" /><path clip-path="url(#clip850)" d="M664.532 1454.1 Q660.921 1454.1 659.092 1457.66 Q657.287 1461.2 657.287 1468.33 Q657.287 1475.44 659.092 1479.01 Q660.921 1482.55 664.532 1482.55 Q668.166 1482.55 669.972 1479.01 Q671.801 1475.44 671.801 1468.33 Q671.801 1461.2 669.972 1457.66 Q668.166 1454.1 664.532 1454.1 M664.532 1450.39 Q670.342 1450.39 673.398 1455 Q676.477 1459.58 676.477 1468.33 Q676.477 1477.06 673.398 1481.67 Q670.342 1486.25 664.532 1486.25 Q658.722 1486.25 655.643 1481.67 Q652.588 1477.06 652.588 1468.33 Q652.588 1459.58 655.643 1455 Q658.722 1450.39 664.532 1450.39 Z" fill="#000000" fill-rule="nonzero" fill-opacity="1" /><path clip-path="url(#clip850)" d="M694.694 1454.1 Q691.083 1454.1 689.254 1457.66 Q687.449 1461.2 687.449 1468.33 Q687.449 1475.44 689.254 1479.01 Q691.083 1482.55 694.694 1482.55 Q698.328 1482.55 700.134 1479.01 Q701.962 1475.44 701.962 1468.33 Q701.962 1461.2 700.134 1457.66 Q698.328 1454.1 694.694 1454.1 M694.694 1450.39 Q700.504 1450.39 703.56 1455 Q706.638 1459.58 706.638 1468.33 Q706.638 1477.06 703.56 1481.67 Q700.504 1486.25 694.694 1486.25 Q688.884 1486.25 685.805 1481.67 Q682.75 1477.06 682.75 1468.33 Q682.75 1459.58 685.805 1455 Q688.884 1450.39 694.694 1450.39 Z" fill="#000000" fill-rule="nonzero" fill-opacity="1" /><path clip-path="url(#clip850)" d="M1025.7 1455.09 L1013.89 1473.54 L1025.7 1473.54 L1025.7 1455.09 M1024.47 1451.02 L1030.35 1451.02 L1030.35 1473.54 L1035.28 1473.54 L1035.28 1477.43 L1030.35 1477.43 L1030.35 1485.58 L1025.7 1485.58 L1025.7 1477.43 L1010.1 1477.43 L1010.1 1472.92 L1024.47 1451.02 Z" fill="#000000" fill-rule="nonzero" fill-opacity="1" /><path clip-path="url(#clip850)" d="M1053.01 1454.1 Q1049.4 1454.1 1047.57 1457.66 Q1045.77 1461.2 1045.77 1468.33 Q1045.77 1475.44 1047.57 1479.01 Q1049.4 1482.55 1053.01 1482.55 Q1056.65 1482.55 1058.45 1479.01 Q1060.28 1475.44 1060.28 1468.33 Q1060.28 1461.2 1058.45 1457.66 Q1056.65 1454.1 1053.01 1454.1 M1053.01 1450.39 Q1058.82 1450.39 1061.88 1455 Q1064.96 1459.58 1064.96 1468.33 Q1064.96 1477.06 1061.88 1481.67 Q1058.82 1486.25 1053.01 1486.25 Q1047.2 1486.25 1044.13 1481.67 Q1041.07 1477.06 1041.07 1468.33 Q1041.07 1459.58 1044.13 1455 Q1047.2 1450.39 1053.01 1450.39 Z" fill="#000000" fill-rule="nonzero" fill-opacity="1" /><path clip-path="url(#clip850)" d="M1083.18 1454.1 Q1079.57 1454.1 1077.74 1457.66 Q1075.93 1461.2 1075.93 1468.33 Q1075.93 1475.44 1077.74 1479.01 Q1079.57 1482.55 1083.18 1482.55 Q1086.81 1482.55 1088.62 1479.01 Q1090.44 1475.44 1090.44 1468.33 Q1090.44 1461.2 1088.62 1457.66 Q1086.81 1454.1 1083.18 1454.1 M1083.18 1450.39 Q1088.99 1450.39 1092.04 1455 Q1095.12 1459.58 1095.12 1468.33 Q1095.12 1477.06 1092.04 1481.67 Q1088.99 1486.25 1083.18 1486.25 Q1077.37 1486.25 1074.29 1481.67 Q1071.23 1477.06 1071.23 1468.33 Q1071.23 1459.58 1074.29 1455 Q1077.37 1450.39 1083.18 1450.39 Z" fill="#000000" fill-rule="nonzero" fill-opacity="1" /><path clip-path="url(#clip850)" d="M1113.34 1454.1 Q1109.73 1454.1 1107.9 1457.66 Q1106.09 1461.2 1106.09 1468.33 Q1106.09 1475.44 1107.9 1479.01 Q1109.73 1482.55 1113.34 1482.55 Q1116.97 1482.55 1118.78 1479.01 Q1120.61 1475.44 1120.61 1468.33 Q1120.61 1461.2 1118.78 1457.66 Q1116.97 1454.1 1113.34 1454.1 M1113.34 1450.39 Q1119.15 1450.39 1122.2 1455 Q1125.28 1459.58 1125.28 1468.33 Q1125.28 1477.06 1122.2 1481.67 Q1119.15 1486.25 1113.34 1486.25 Q1107.53 1486.25 1104.45 1481.67 Q1101.39 1477.06 1101.39 1468.33 Q1101.39 1459.58 1104.45 1455 Q1107.53 1450.39 1113.34 1450.39 Z" fill="#000000" fill-rule="nonzero" fill-opacity="1" /><path clip-path="url(#clip850)" d="M1441 1466.44 Q1437.85 1466.44 1436 1468.59 Q1434.17 1470.74 1434.17 1474.49 Q1434.17 1478.22 1436 1480.39 Q1437.85 1482.55 1441 1482.55 Q1444.15 1482.55 1445.98 1480.39 Q1447.83 1478.22 1447.83 1474.49 Q1447.83 1470.74 1445.98 1468.59 Q1444.15 1466.44 1441 1466.44 M1450.28 1451.78 L1450.28 1456.04 Q1448.52 1455.21 1446.72 1454.77 Q1444.93 1454.33 1443.17 1454.33 Q1438.54 1454.33 1436.09 1457.45 Q1433.66 1460.58 1433.31 1466.9 Q1434.68 1464.89 1436.74 1463.82 Q1438.8 1462.73 1441.28 1462.73 Q1446.48 1462.73 1449.49 1465.9 Q1452.53 1469.05 1452.53 1474.49 Q1452.53 1479.82 1449.38 1483.03 Q1446.23 1486.25 1441 1486.25 Q1435 1486.25 1431.83 1481.67 Q1428.66 1477.06 1428.66 1468.33 Q1428.66 1460.14 1432.55 1455.28 Q1436.44 1450.39 1442.99 1450.39 Q1444.75 1450.39 1446.53 1450.74 Q1448.34 1451.09 1450.28 1451.78 Z" fill="#000000" fill-rule="nonzero" fill-opacity="1" /><path clip-path="url(#clip850)" d="M1470.58 1454.1 Q1466.97 1454.1 1465.14 1457.66 Q1463.34 1461.2 1463.34 1468.33 Q1463.34 1475.44 1465.14 1479.01 Q1466.97 1482.55 1470.58 1482.55 Q1474.22 1482.55 1476.02 1479.01 Q1477.85 1475.44 1477.85 1468.33 Q1477.85 1461.2 1476.02 1457.66 Q1474.22 1454.1 1470.58 1454.1 M1470.58 1450.39 Q1476.39 1450.39 1479.45 1455 Q1482.53 1459.58 1482.53 1468.33 Q1482.53 1477.06 1479.45 1481.67 Q1476.39 1486.25 1470.58 1486.25 Q1464.77 1486.25 1461.69 1481.67 Q1458.64 1477.06 1458.64 1468.33 Q1458.64 1459.58 1461.69 1455 Q1464.77 1450.39 1470.58 1450.39 Z" fill="#000000" fill-rule="nonzero" fill-opacity="1" /><path clip-path="url(#clip850)" d="M1500.74 1454.1 Q1497.13 1454.1 1495.3 1457.66 Q1493.5 1461.2 1493.5 1468.33 Q1493.5 1475.44 1495.3 1479.01 Q1497.13 1482.55 1500.74 1482.55 Q1504.38 1482.55 1506.18 1479.01 Q1508.01 1475.44 1508.01 1468.33 Q1508.01 1461.2 1506.18 1457.66 Q1504.38 1454.1 1500.74 1454.1 M1500.74 1450.39 Q1506.55 1450.39 1509.61 1455 Q1512.69 1459.58 1512.69 1468.33 Q1512.69 1477.06 1509.61 1481.67 Q1506.55 1486.25 1500.74 1486.25 Q1494.93 1486.25 1491.85 1481.67 Q1488.8 1477.06 1488.8 1468.33 Q1488.8 1459.58 1491.85 1455 Q1494.93 1450.39 1500.74 1450.39 Z" fill="#000000" fill-rule="nonzero" fill-opacity="1" /><path clip-path="url(#clip850)" d="M1530.91 1454.1 Q1527.29 1454.1 1525.47 1457.66 Q1523.66 1461.2 1523.66 1468.33 Q1523.66 1475.44 1525.47 1479.01 Q1527.29 1482.55 1530.91 1482.55 Q1534.54 1482.55 1536.35 1479.01 Q1538.17 1475.44 1538.17 1468.33 Q1538.17 1461.2 1536.35 1457.66 Q1534.54 1454.1 1530.91 1454.1 M1530.91 1450.39 Q1536.72 1450.39 1539.77 1455 Q1542.85 1459.58 1542.85 1468.33 Q1542.85 1477.06 1539.77 1481.67 Q1536.72 1486.25 1530.91 1486.25 Q1525.1 1486.25 1522.02 1481.67 Q1518.96 1477.06 1518.96 1468.33 Q1518.96 1459.58 1522.02 1455 Q1525.1 1450.39 1530.91 1450.39 Z" fill="#000000" fill-rule="nonzero" fill-opacity="1" /><path clip-path="url(#clip850)" d="M1858.53 1469.17 Q1855.2 1469.17 1853.28 1470.95 Q1851.38 1472.73 1851.38 1475.86 Q1851.38 1478.98 1853.28 1480.77 Q1855.2 1482.55 1858.53 1482.55 Q1861.86 1482.55 1863.79 1480.77 Q1865.71 1478.96 1865.71 1475.86 Q1865.71 1472.73 1863.79 1470.95 Q1861.89 1469.17 1858.53 1469.17 M1853.86 1467.18 Q1850.85 1466.44 1849.16 1464.38 Q1847.49 1462.32 1847.49 1459.35 Q1847.49 1455.21 1850.43 1452.8 Q1853.39 1450.39 1858.53 1450.39 Q1863.69 1450.39 1866.63 1452.8 Q1869.57 1455.21 1869.57 1459.35 Q1869.57 1462.32 1867.88 1464.38 Q1866.22 1466.44 1863.23 1467.18 Q1866.61 1467.96 1868.49 1470.26 Q1870.38 1472.55 1870.38 1475.86 Q1870.38 1480.88 1867.3 1483.57 Q1864.25 1486.25 1858.53 1486.25 Q1852.81 1486.25 1849.74 1483.57 Q1846.68 1480.88 1846.68 1475.86 Q1846.68 1472.55 1848.58 1470.26 Q1850.48 1467.96 1853.86 1467.18 M1852.14 1459.79 Q1852.14 1462.48 1853.81 1463.98 Q1855.5 1465.49 1858.53 1465.49 Q1861.54 1465.49 1863.23 1463.98 Q1864.94 1462.48 1864.94 1459.79 Q1864.94 1457.11 1863.23 1455.6 Q1861.54 1454.1 1858.53 1454.1 Q1855.5 1454.1 1853.81 1455.6 Q1852.14 1457.11 1852.14 1459.79 Z" fill="#000000" fill-rule="nonzero" fill-opacity="1" /><path clip-path="url(#clip850)" d="M1888.69 1454.1 Q1885.08 1454.1 1883.25 1457.66 Q1881.45 1461.2 1881.45 1468.33 Q1881.45 1475.44 1883.25 1479.01 Q1885.08 1482.55 1888.69 1482.55 Q1892.33 1482.55 1894.13 1479.01 Q1895.96 1475.44 1895.96 1468.33 Q1895.96 1461.2 1894.13 1457.66 Q1892.33 1454.1 1888.69 1454.1 M1888.69 1450.39 Q1894.5 1450.39 1897.56 1455 Q1900.64 1459.58 1900.64 1468.33 Q1900.64 1477.06 1897.56 1481.67 Q1894.5 1486.25 1888.69 1486.25 Q1882.88 1486.25 1879.8 1481.67 Q1876.75 1477.06 1876.75 1468.33 Q1876.75 1459.58 1879.8 1455 Q1882.88 1450.39 1888.69 1450.39 Z" fill="#000000" fill-rule="nonzero" fill-opacity="1" /><path clip-path="url(#clip850)" d="M1918.86 1454.1 Q1915.24 1454.1 1913.42 1457.66 Q1911.61 1461.2 1911.61 1468.33 Q1911.61 1475.44 1913.42 1479.01 Q1915.24 1482.55 1918.86 1482.55 Q1922.49 1482.55 1924.3 1479.01 Q1926.12 1475.44 1926.12 1468.33 Q1926.12 1461.2 1924.3 1457.66 Q1922.49 1454.1 1918.86 1454.1 M1918.86 1450.39 Q1924.67 1450.39 1927.72 1455 Q1930.8 1459.58 1930.8 1468.33 Q1930.8 1477.06 1927.72 1481.67 Q1924.67 1486.25 1918.86 1486.25 Q1913.05 1486.25 1909.97 1481.67 Q1906.91 1477.06 1906.91 1468.33 Q1906.91 1459.58 1909.97 1455 Q1913.05 1450.39 1918.86 1450.39 Z" fill="#000000" fill-rule="nonzero" fill-opacity="1" /><path clip-path="url(#clip850)" d="M1949.02 1454.1 Q1945.41 1454.1 1943.58 1457.66 Q1941.77 1461.2 1941.77 1468.33 Q1941.77 1475.44 1943.58 1479.01 Q1945.41 1482.55 1949.02 1482.55 Q1952.65 1482.55 1954.46 1479.01 Q1956.29 1475.44 1956.29 1468.33 Q1956.29 1461.2 1954.46 1457.66 Q1952.65 1454.1 1949.02 1454.1 M1949.02 1450.39 Q1954.83 1450.39 1957.88 1455 Q1960.96 1459.58 1960.96 1468.33 Q1960.96 1477.06 1957.88 1481.67 Q1954.83 1486.25 1949.02 1486.25 Q1943.21 1486.25 1940.13 1481.67 Q1937.07 1477.06 1937.07 1468.33 Q1937.07 1459.58 1940.13 1455 Q1943.21 1450.39 1949.02 1450.39 Z" fill="#000000" fill-rule="nonzero" fill-opacity="1" /><path clip-path="url(#clip850)" d="M2251.33 1481.64 L2258.97 1481.64 L2258.97 1455.28 L2250.66 1456.95 L2250.66 1452.69 L2258.92 1451.02 L2263.6 1451.02 L2263.6 1481.64 L2271.24 1481.64 L2271.24 1485.58 L2251.33 1485.58 L2251.33 1481.64 Z" fill="#000000" fill-rule="nonzero" fill-opacity="1" /><path clip-path="url(#clip850)" d="M2290.68 1454.1 Q2287.07 1454.1 2285.24 1457.66 Q2283.44 1461.2 2283.44 1468.33 Q2283.44 1475.44 2285.24 1479.01 Q2287.07 1482.55 2290.68 1482.55 Q2294.32 1482.55 2296.12 1479.01 Q2297.95 1475.44 2297.95 1468.33 Q2297.95 1461.2 2296.12 1457.66 Q2294.32 1454.1 2290.68 1454.1 M2290.68 1450.39 Q2296.49 1450.39 2299.55 1455 Q2302.63 1459.58 2302.63 1468.33 Q2302.63 1477.06 2299.55 1481.67 Q2296.49 1486.25 2290.68 1486.25 Q2284.87 1486.25 2281.79 1481.67 Q2278.74 1477.06 2278.74 1468.33 Q2278.74 1459.58 2281.79 1455 Q2284.87 1450.39 2290.68 1450.39 Z" fill="#000000" fill-rule="nonzero" fill-opacity="1" /><path clip-path="url(#clip850)" d="M2320.84 1454.1 Q2317.23 1454.1 2315.4 1457.66 Q2313.6 1461.2 2313.6 1468.33 Q2313.6 1475.44 2315.4 1479.01 Q2317.23 1482.55 2320.84 1482.55 Q2324.48 1482.55 2326.28 1479.01 Q2328.11 1475.44 2328.11 1468.33 Q2328.11 1461.2 2326.28 1457.66 Q2324.48 1454.1 2320.84 1454.1 M2320.84 1450.39 Q2326.65 1450.39 2329.71 1455 Q2332.79 1459.58 2332.79 1468.33 Q2332.79 1477.06 2329.71 1481.67 Q2326.65 1486.25 2320.84 1486.25 Q2315.03 1486.25 2311.96 1481.67 Q2308.9 1477.06 2308.9 1468.33 Q2308.9 1459.58 2311.96 1455 Q2315.03 1450.39 2320.84 1450.39 Z" fill="#000000" fill-rule="nonzero" fill-opacity="1" /><path clip-path="url(#clip850)" d="M2351.01 1454.1 Q2347.4 1454.1 2345.57 1457.66 Q2343.76 1461.2 2343.76 1468.33 Q2343.76 1475.44 2345.57 1479.01 Q2347.4 1482.55 2351.01 1482.55 Q2354.64 1482.55 2356.45 1479.01 Q2358.27 1475.44 2358.27 1468.33 Q2358.27 1461.2 2356.45 1457.66 Q2354.64 1454.1 2351.01 1454.1 M2351.01 1450.39 Q2356.82 1450.39 2359.87 1455 Q2362.95 1459.58 2362.95 1468.33 Q2362.95 1477.06 2359.87 1481.67 Q2356.82 1486.25 2351.01 1486.25 Q2345.2 1486.25 2342.12 1481.67 Q2339.06 1477.06 2339.06 1468.33 Q2339.06 1459.58 2342.12 1455 Q2345.2 1450.39 2351.01 1450.39 Z" fill="#000000" fill-rule="nonzero" fill-opacity="1" /><path clip-path="url(#clip850)" d="M2381.17 1454.1 Q2377.56 1454.1 2375.73 1457.66 Q2373.92 1461.2 2373.92 1468.33 Q2373.92 1475.44 2375.73 1479.01 Q2377.56 1482.55 2381.17 1482.55 Q2384.8 1482.55 2386.61 1479.01 Q2388.44 1475.44 2388.44 1468.33 Q2388.44 1461.2 2386.61 1457.66 Q2384.8 1454.1 2381.17 1454.1 M2381.17 1450.39 Q2386.98 1450.39 2390.03 1455 Q2393.11 1459.58 2393.11 1468.33 Q2393.11 1477.06 2390.03 1481.67 Q2386.98 1486.25 2381.17 1486.25 Q2375.36 1486.25 2372.28 1481.67 Q2369.22 1477.06 2369.22 1468.33 Q2369.22 1459.58 2372.28 1455 Q2375.36 1450.39 2381.17 1450.39 Z" fill="#000000" fill-rule="nonzero" fill-opacity="1" /><path clip-path="url(#clip850)" d="M1030.55 1520.52 L1039.21 1520.52 L1060.28 1560.28 L1060.28 1520.52 L1066.52 1520.52 L1066.52 1568.04 L1057.86 1568.04 L1036.79 1528.29 L1036.79 1568.04 L1030.55 1568.04 L1030.55 1520.52 Z" fill="#000000" fill-rule="nonzero" fill-opacity="1" /><path clip-path="url(#clip850)" d="M1078.45 1553.98 L1078.45 1532.4 L1084.31 1532.4 L1084.31 1553.75 Q1084.31 1558.81 1086.28 1561.36 Q1088.26 1563.87 1092.2 1563.87 Q1096.95 1563.87 1099.68 1560.85 Q1102.45 1557.83 1102.45 1552.61 L1102.45 1532.4 L1108.31 1532.4 L1108.31 1568.04 L1102.45 1568.04 L1102.45 1562.57 Q1100.32 1565.82 1097.49 1567.41 Q1094.69 1568.97 1090.96 1568.97 Q1084.82 1568.97 1081.64 1565.15 Q1078.45 1561.33 1078.45 1553.98 M1093.19 1531.54 L1093.19 1531.54 Z" fill="#000000" fill-rule="nonzero" fill-opacity="1" /><path clip-path="url(#clip850)" d="M1148.13 1539.24 Q1150.32 1535.29 1153.38 1533.41 Q1156.43 1531.54 1160.57 1531.54 Q1166.14 1531.54 1169.17 1535.45 Q1172.19 1539.33 1172.19 1546.53 L1172.19 1568.04 L1166.3 1568.04 L1166.3 1546.72 Q1166.3 1541.59 1164.49 1539.11 Q1162.67 1536.63 1158.95 1536.63 Q1154.4 1536.63 1151.76 1539.65 Q1149.11 1542.68 1149.11 1547.9 L1149.11 1568.04 L1143.23 1568.04 L1143.23 1546.72 Q1143.23 1541.56 1141.41 1539.11 Q1139.6 1536.63 1135.81 1536.63 Q1131.32 1536.63 1128.68 1539.68 Q1126.04 1542.71 1126.04 1547.9 L1126.04 1568.04 L1120.15 1568.04 L1120.15 1532.4 L1126.04 1532.4 L1126.04 1537.93 Q1128.04 1534.66 1130.84 1533.1 Q1133.65 1531.54 1137.5 1531.54 Q1141.38 1531.54 1144.09 1533.51 Q1146.82 1535.48 1148.13 1539.24 Z" fill="#000000" fill-rule="nonzero" fill-opacity="1" /><path clip-path="url(#clip850)" d="M1209.46 1550.25 Q1209.46 1543.79 1206.79 1540.13 Q1204.15 1536.44 1199.5 1536.44 Q1194.85 1536.44 1192.18 1540.13 Q1189.54 1543.79 1189.54 1550.25 Q1189.54 1556.71 1192.18 1560.4 Q1194.85 1564.07 1199.5 1564.07 Q1204.15 1564.07 1206.79 1560.4 Q1209.46 1556.71 1209.46 1550.25 M1189.54 1537.81 Q1191.38 1534.62 1194.18 1533.1 Q1197.02 1531.54 1200.93 1531.54 Q1207.42 1531.54 1211.47 1536.69 Q1215.54 1541.85 1215.54 1550.25 Q1215.54 1558.65 1211.47 1563.81 Q1207.42 1568.97 1200.93 1568.97 Q1197.02 1568.97 1194.18 1567.44 Q1191.38 1565.88 1189.54 1562.7 L1189.54 1568.04 L1183.65 1568.04 L1183.65 1518.52 L1189.54 1518.52 L1189.54 1537.81 Z" fill="#000000" fill-rule="nonzero" fill-opacity="1" /><path clip-path="url(#clip850)" d="M1255.74 1548.76 L1255.74 1551.62 L1228.81 1551.62 Q1229.19 1557.67 1232.44 1560.85 Q1235.72 1564 1241.54 1564 Q1244.92 1564 1248.07 1563.17 Q1251.25 1562.35 1254.37 1560.69 L1254.37 1566.23 Q1251.22 1567.57 1247.91 1568.27 Q1244.6 1568.97 1241.19 1568.97 Q1232.66 1568.97 1227.67 1564 Q1222.7 1559.04 1222.7 1550.57 Q1222.7 1541.82 1227.41 1536.69 Q1232.15 1531.54 1240.18 1531.54 Q1247.37 1531.54 1251.54 1536.18 Q1255.74 1540.8 1255.74 1548.76 M1249.88 1547.04 Q1249.82 1542.23 1247.18 1539.37 Q1244.57 1536.5 1240.24 1536.5 Q1235.34 1536.5 1232.38 1539.27 Q1229.45 1542.04 1229 1547.07 L1249.88 1547.04 Z" fill="#000000" fill-rule="nonzero" fill-opacity="1" /><path clip-path="url(#clip850)" d="M1286.01 1537.87 Q1285.02 1537.3 1283.84 1537.04 Q1282.7 1536.76 1281.3 1536.76 Q1276.33 1536.76 1273.66 1540 Q1271.02 1543.22 1271.02 1549.27 L1271.02 1568.04 L1265.13 1568.04 L1265.13 1532.4 L1271.02 1532.4 L1271.02 1537.93 Q1272.86 1534.69 1275.82 1533.13 Q1278.78 1531.54 1283.02 1531.54 Q1283.62 1531.54 1284.35 1531.63 Q1285.09 1531.7 1285.98 1531.85 L1286.01 1537.87 Z" fill="#000000" fill-rule="nonzero" fill-opacity="1" /><path clip-path="url(#clip850)" d="M1326.69 1536.5 Q1321.97 1536.5 1319.24 1540.19 Q1316.5 1543.85 1316.5 1550.25 Q1316.5 1556.65 1319.21 1560.34 Q1321.94 1564 1326.69 1564 Q1331.36 1564 1334.1 1560.31 Q1336.84 1556.62 1336.84 1550.25 Q1336.84 1543.92 1334.1 1540.23 Q1331.36 1536.5 1326.69 1536.5 M1326.69 1531.54 Q1334.32 1531.54 1338.68 1536.5 Q1343.05 1541.47 1343.05 1550.25 Q1343.05 1559 1338.68 1564 Q1334.32 1568.97 1326.69 1568.97 Q1319.01 1568.97 1314.65 1564 Q1310.33 1559 1310.33 1550.25 Q1310.33 1541.47 1314.65 1536.5 Q1319.01 1531.54 1326.69 1531.54 Z" fill="#000000" fill-rule="nonzero" fill-opacity="1" /><path clip-path="url(#clip850)" d="M1370.8 1518.52 L1370.8 1523.39 L1365.2 1523.39 Q1362.05 1523.39 1360.81 1524.66 Q1359.6 1525.93 1359.6 1529.24 L1359.6 1532.4 L1369.24 1532.4 L1369.24 1536.95 L1359.6 1536.95 L1359.6 1568.04 L1353.71 1568.04 L1353.71 1536.95 L1348.11 1536.95 L1348.11 1532.4 L1353.71 1532.4 L1353.71 1529.91 Q1353.71 1523.96 1356.48 1521.26 Q1359.25 1518.52 1365.26 1518.52 L1370.8 1518.52 Z" fill="#000000" fill-rule="nonzero" fill-opacity="1" /><path clip-path="url(#clip850)" d="M1402.09 1562.7 L1402.09 1581.6 L1396.2 1581.6 L1396.2 1532.4 L1402.09 1532.4 L1402.09 1537.81 Q1403.93 1534.62 1406.73 1533.1 Q1409.57 1531.54 1413.48 1531.54 Q1419.98 1531.54 1424.02 1536.69 Q1428.09 1541.85 1428.09 1550.25 Q1428.09 1558.65 1424.02 1563.81 Q1419.98 1568.97 1413.48 1568.97 Q1409.57 1568.97 1406.73 1567.44 Q1403.93 1565.88 1402.09 1562.7 M1422.01 1550.25 Q1422.01 1543.79 1419.34 1540.13 Q1416.7 1536.44 1412.05 1536.44 Q1407.4 1536.44 1404.73 1540.13 Q1402.09 1543.79 1402.09 1550.25 Q1402.09 1556.71 1404.73 1560.4 Q1407.4 1564.07 1412.05 1564.07 Q1416.7 1564.07 1419.34 1560.4 Q1422.01 1556.71 1422.01 1550.25 Z" fill="#000000" fill-rule="nonzero" fill-opacity="1" /><path clip-path="url(#clip850)" d="M1454 1550.12 Q1446.9 1550.12 1444.16 1551.75 Q1441.43 1553.37 1441.43 1557.29 Q1441.43 1560.4 1443.46 1562.25 Q1445.53 1564.07 1449.07 1564.07 Q1453.94 1564.07 1456.86 1560.63 Q1459.82 1557.16 1459.82 1551.43 L1459.82 1550.12 L1454 1550.12 M1465.68 1547.71 L1465.68 1568.04 L1459.82 1568.04 L1459.82 1562.63 Q1457.82 1565.88 1454.83 1567.44 Q1451.84 1568.97 1447.51 1568.97 Q1442.03 1568.97 1438.79 1565.91 Q1435.57 1562.82 1435.57 1557.67 Q1435.57 1551.65 1439.58 1548.6 Q1443.62 1545.54 1451.61 1545.54 L1459.82 1545.54 L1459.82 1544.97 Q1459.82 1540.93 1457.15 1538.73 Q1454.51 1536.5 1449.7 1536.5 Q1446.65 1536.5 1443.75 1537.23 Q1440.85 1537.97 1438.18 1539.43 L1438.18 1534.02 Q1441.4 1532.78 1444.42 1532.17 Q1447.44 1531.54 1450.31 1531.54 Q1458.04 1531.54 1461.86 1535.55 Q1465.68 1539.56 1465.68 1547.71 Z" fill="#000000" fill-rule="nonzero" fill-opacity="1" /><path clip-path="url(#clip850)" d="M1507.38 1546.53 L1507.38 1568.04 L1501.52 1568.04 L1501.52 1546.72 Q1501.52 1541.66 1499.55 1539.14 Q1497.57 1536.63 1493.63 1536.63 Q1488.88 1536.63 1486.15 1539.65 Q1483.41 1542.68 1483.41 1547.9 L1483.41 1568.04 L1477.52 1568.04 L1477.52 1532.4 L1483.41 1532.4 L1483.41 1537.93 Q1485.51 1534.72 1488.34 1533.13 Q1491.21 1531.54 1494.93 1531.54 Q1501.07 1531.54 1504.23 1535.36 Q1507.38 1539.14 1507.38 1546.53 Z" fill="#000000" fill-rule="nonzero" fill-opacity="1" /><path clip-path="url(#clip850)" d="M1549.55 1548.76 L1549.55 1551.62 L1522.62 1551.62 Q1523 1557.67 1526.25 1560.85 Q1529.53 1564 1535.35 1564 Q1538.73 1564 1541.88 1563.17 Q1545.06 1562.35 1548.18 1560.69 L1548.18 1566.23 Q1545.03 1567.57 1541.72 1568.27 Q1538.41 1568.97 1535 1568.97 Q1526.47 1568.97 1521.48 1564 Q1516.51 1559.04 1516.51 1550.57 Q1516.51 1541.82 1521.22 1536.69 Q1525.96 1531.54 1533.98 1531.54 Q1541.18 1531.54 1545.35 1536.18 Q1549.55 1540.8 1549.55 1548.76 M1543.69 1547.04 Q1543.63 1542.23 1540.99 1539.37 Q1538.38 1536.5 1534.05 1536.5 Q1529.15 1536.5 1526.19 1539.27 Q1523.26 1542.04 1522.81 1547.07 L1543.69 1547.04 Z" fill="#000000" fill-rule="nonzero" fill-opacity="1" /><path clip-path="url(#clip850)" d="M1559.16 1518.52 L1565.02 1518.52 L1565.02 1568.04 L1559.16 1568.04 L1559.16 1518.52 Z" fill="#000000" fill-rule="nonzero" fill-opacity="1" /><path clip-path="url(#clip850)" d="M1600 1533.45 L1600 1538.98 Q1597.51 1537.71 1594.84 1537.07 Q1592.17 1536.44 1589.3 1536.44 Q1584.94 1536.44 1582.75 1537.77 Q1580.58 1539.11 1580.58 1541.79 Q1580.58 1543.82 1582.14 1545 Q1583.7 1546.15 1588.41 1547.2 L1590.42 1547.64 Q1596.66 1548.98 1599.27 1551.43 Q1601.91 1553.85 1601.91 1558.21 Q1601.91 1563.17 1597.96 1566.07 Q1594.05 1568.97 1587.17 1568.97 Q1584.31 1568.97 1581.19 1568.39 Q1578.1 1567.85 1574.66 1566.74 L1574.66 1560.69 Q1577.91 1562.38 1581.06 1563.24 Q1584.21 1564.07 1587.3 1564.07 Q1591.44 1564.07 1593.66 1562.66 Q1595.89 1561.23 1595.89 1558.65 Q1595.89 1556.27 1594.27 1554.99 Q1592.68 1553.72 1587.23 1552.54 L1585.2 1552.07 Q1579.75 1550.92 1577.34 1548.56 Q1574.92 1546.18 1574.92 1542.04 Q1574.92 1537.01 1578.48 1534.27 Q1582.05 1531.54 1588.6 1531.54 Q1591.85 1531.54 1594.71 1532.01 Q1597.58 1532.49 1600 1533.45 Z" fill="#000000" fill-rule="nonzero" fill-opacity="1" /><polyline clip-path="url(#clip850)" style="stroke:#000000; stroke-linecap:round; stroke-linejoin:round; stroke-width:4; stroke-opacity:1; fill:none" points="279.704,1423.18 279.704,123.472 "/>
<polyline clip-path="url(#clip850)" style="stroke:#000000; stroke-linecap:round; stroke-linejoin:round; stroke-width:4; stroke-opacity:1; fill:none" points="279.704,1268.46 298.602,1268.46 "/>
<polyline clip-path="url(#clip850)" style="stroke:#000000; stroke-linecap:round; stroke-linejoin:round; stroke-width:4; stroke-opacity:1; fill:none" points="279.704,999.015 298.602,999.015 "/>
<polyline clip-path="url(#clip850)" style="stroke:#000000; stroke-linecap:round; stroke-linejoin:round; stroke-width:4; stroke-opacity:1; fill:none" points="279.704,729.566 298.602,729.566 "/>
<polyline clip-path="url(#clip850)" style="stroke:#000000; stroke-linecap:round; stroke-linejoin:round; stroke-width:4; stroke-opacity:1; fill:none" points="279.704,460.117 298.602,460.117 "/>
<polyline clip-path="url(#clip850)" style="stroke:#000000; stroke-linecap:round; stroke-linejoin:round; stroke-width:4; stroke-opacity:1; fill:none" points="279.704,190.668 298.602,190.668 "/>
<path clip-path="url(#clip850)" d="M127.2 1254.26 Q123.589 1254.26 121.76 1257.83 Q119.955 1261.37 119.955 1268.5 Q119.955 1275.6 121.76 1279.17 Q123.589 1282.71 127.2 1282.71 Q130.834 1282.71 132.64 1279.17 Q134.468 1275.6 134.468 1268.5 Q134.468 1261.37 132.64 1257.83 Q130.834 1254.26 127.2 1254.26 M127.2 1250.56 Q133.01 1250.56 136.066 1255.16 Q139.144 1259.75 139.144 1268.5 Q139.144 1277.22 136.066 1281.83 Q133.01 1286.41 127.2 1286.41 Q121.39 1286.41 118.311 1281.83 Q115.256 1277.22 115.256 1268.5 Q115.256 1259.75 118.311 1255.16 Q121.39 1250.56 127.2 1250.56 Z" fill="#000000" fill-rule="nonzero" fill-opacity="1" /><path clip-path="url(#clip850)" d="M147.362 1279.86 L152.246 1279.86 L152.246 1285.74 L147.362 1285.74 L147.362 1279.86 Z" fill="#000000" fill-rule="nonzero" fill-opacity="1" /><path clip-path="url(#clip850)" d="M172.431 1254.26 Q168.82 1254.26 166.991 1257.83 Q165.186 1261.37 165.186 1268.5 Q165.186 1275.6 166.991 1279.17 Q168.82 1282.71 172.431 1282.71 Q176.065 1282.71 177.871 1279.17 Q179.7 1275.6 179.7 1268.5 Q179.7 1261.37 177.871 1257.83 Q176.065 1254.26 172.431 1254.26 M172.431 1250.56 Q178.241 1250.56 181.297 1255.16 Q184.376 1259.75 184.376 1268.5 Q184.376 1277.22 181.297 1281.83 Q178.241 1286.41 172.431 1286.41 Q166.621 1286.41 163.542 1281.83 Q160.487 1277.22 160.487 1268.5 Q160.487 1259.75 163.542 1255.16 Q166.621 1250.56 172.431 1250.56 Z" fill="#000000" fill-rule="nonzero" fill-opacity="1" /><path clip-path="url(#clip850)" d="M202.593 1254.26 Q198.982 1254.26 197.153 1257.83 Q195.348 1261.37 195.348 1268.5 Q195.348 1275.6 197.153 1279.17 Q198.982 1282.71 202.593 1282.71 Q206.227 1282.71 208.033 1279.17 Q209.861 1275.6 209.861 1268.5 Q209.861 1261.37 208.033 1257.83 Q206.227 1254.26 202.593 1254.26 M202.593 1250.56 Q208.403 1250.56 211.459 1255.16 Q214.537 1259.75 214.537 1268.5 Q214.537 1277.22 211.459 1281.83 Q208.403 1286.41 202.593 1286.41 Q196.783 1286.41 193.704 1281.83 Q190.649 1277.22 190.649 1268.5 Q190.649 1259.75 193.704 1255.16 Q196.783 1250.56 202.593 1250.56 Z" fill="#000000" fill-rule="nonzero" fill-opacity="1" /><path clip-path="url(#clip850)" d="M222.801 1251.18 L241.158 1251.18 L241.158 1255.12 L227.084 1255.12 L227.084 1263.59 Q228.102 1263.24 229.121 1263.08 Q230.139 1262.9 231.158 1262.9 Q236.945 1262.9 240.324 1266.07 Q243.704 1269.24 243.704 1274.66 Q243.704 1280.23 240.232 1283.34 Q236.76 1286.41 230.44 1286.41 Q228.264 1286.41 225.996 1286.04 Q223.75 1285.67 221.343 1284.93 L221.343 1280.23 Q223.426 1281.37 225.648 1281.92 Q227.871 1282.48 230.347 1282.48 Q234.352 1282.48 236.69 1280.37 Q239.028 1278.27 239.028 1274.66 Q239.028 1271.04 236.69 1268.94 Q234.352 1266.83 230.347 1266.83 Q228.473 1266.83 226.598 1267.25 Q224.746 1267.66 222.801 1268.54 L222.801 1251.18 Z" fill="#000000" fill-rule="nonzero" fill-opacity="1" /><path clip-path="url(#clip850)" d="M126.205 984.813 Q122.593 984.813 120.765 988.378 Q118.959 991.92 118.959 999.049 Q118.959 1006.16 120.765 1009.72 Q122.593 1013.26 126.205 1013.26 Q129.839 1013.26 131.644 1009.72 Q133.473 1006.16 133.473 999.049 Q133.473 991.92 131.644 988.378 Q129.839 984.813 126.205 984.813 M126.205 981.11 Q132.015 981.11 135.07 985.716 Q138.149 990.299 138.149 999.049 Q138.149 1007.78 135.07 1012.38 Q132.015 1016.97 126.205 1016.97 Q120.394 1016.97 117.316 1012.38 Q114.26 1007.78 114.26 999.049 Q114.26 990.299 117.316 985.716 Q120.394 981.11 126.205 981.11 Z" fill="#000000" fill-rule="nonzero" fill-opacity="1" /><path clip-path="url(#clip850)" d="M146.366 1010.41 L151.251 1010.41 L151.251 1016.29 L146.366 1016.29 L146.366 1010.41 Z" fill="#000000" fill-rule="nonzero" fill-opacity="1" /><path clip-path="url(#clip850)" d="M171.436 984.813 Q167.825 984.813 165.996 988.378 Q164.19 991.92 164.19 999.049 Q164.19 1006.16 165.996 1009.72 Q167.825 1013.26 171.436 1013.26 Q175.07 1013.26 176.876 1009.72 Q178.704 1006.16 178.704 999.049 Q178.704 991.92 176.876 988.378 Q175.07 984.813 171.436 984.813 M171.436 981.11 Q177.246 981.11 180.301 985.716 Q183.38 990.299 183.38 999.049 Q183.38 1007.78 180.301 1012.38 Q177.246 1016.97 171.436 1016.97 Q165.626 1016.97 162.547 1012.38 Q159.491 1007.78 159.491 999.049 Q159.491 990.299 162.547 985.716 Q165.626 981.11 171.436 981.11 Z" fill="#000000" fill-rule="nonzero" fill-opacity="1" /><path clip-path="url(#clip850)" d="M192.408 1012.36 L200.047 1012.36 L200.047 985.994 L191.737 987.66 L191.737 983.401 L200 981.735 L204.676 981.735 L204.676 1012.36 L212.315 1012.36 L212.315 1016.29 L192.408 1016.29 L192.408 1012.36 Z" fill="#000000" fill-rule="nonzero" fill-opacity="1" /><path clip-path="url(#clip850)" d="M231.76 984.813 Q228.148 984.813 226.32 988.378 Q224.514 991.92 224.514 999.049 Q224.514 1006.16 226.32 1009.72 Q228.148 1013.26 231.76 1013.26 Q235.394 1013.26 237.199 1009.72 Q239.028 1006.16 239.028 999.049 Q239.028 991.92 237.199 988.378 Q235.394 984.813 231.76 984.813 M231.76 981.11 Q237.57 981.11 240.625 985.716 Q243.704 990.299 243.704 999.049 Q243.704 1007.78 240.625 1012.38 Q237.57 1016.97 231.76 1016.97 Q225.949 1016.97 222.871 1012.38 Q219.815 1007.78 219.815 999.049 Q219.815 990.299 222.871 985.716 Q225.949 981.11 231.76 981.11 Z" fill="#000000" fill-rule="nonzero" fill-opacity="1" /><path clip-path="url(#clip850)" d="M127.2 715.364 Q123.589 715.364 121.76 718.929 Q119.955 722.471 119.955 729.6 Q119.955 736.707 121.76 740.272 Q123.589 743.813 127.2 743.813 Q130.834 743.813 132.64 740.272 Q134.468 736.707 134.468 729.6 Q134.468 722.471 132.64 718.929 Q130.834 715.364 127.2 715.364 M127.2 711.661 Q133.01 711.661 136.066 716.267 Q139.144 720.85 139.144 729.6 Q139.144 738.327 136.066 742.934 Q133.01 747.517 127.2 747.517 Q121.39 747.517 118.311 742.934 Q115.256 738.327 115.256 729.6 Q115.256 720.85 118.311 716.267 Q121.39 711.661 127.2 711.661 Z" fill="#000000" fill-rule="nonzero" fill-opacity="1" /><path clip-path="url(#clip850)" d="M147.362 740.966 L152.246 740.966 L152.246 746.846 L147.362 746.846 L147.362 740.966 Z" fill="#000000" fill-rule="nonzero" fill-opacity="1" /><path clip-path="url(#clip850)" d="M172.431 715.364 Q168.82 715.364 166.991 718.929 Q165.186 722.471 165.186 729.6 Q165.186 736.707 166.991 740.272 Q168.82 743.813 172.431 743.813 Q176.065 743.813 177.871 740.272 Q179.7 736.707 179.7 729.6 Q179.7 722.471 177.871 718.929 Q176.065 715.364 172.431 715.364 M172.431 711.661 Q178.241 711.661 181.297 716.267 Q184.376 720.85 184.376 729.6 Q184.376 738.327 181.297 742.934 Q178.241 747.517 172.431 747.517 Q166.621 747.517 163.542 742.934 Q160.487 738.327 160.487 729.6 Q160.487 720.85 163.542 716.267 Q166.621 711.661 172.431 711.661 Z" fill="#000000" fill-rule="nonzero" fill-opacity="1" /><path clip-path="url(#clip850)" d="M193.403 742.911 L201.042 742.911 L201.042 716.545 L192.732 718.212 L192.732 713.952 L200.996 712.286 L205.672 712.286 L205.672 742.911 L213.311 742.911 L213.311 746.846 L193.403 746.846 L193.403 742.911 Z" fill="#000000" fill-rule="nonzero" fill-opacity="1" /><path clip-path="url(#clip850)" d="M222.801 712.286 L241.158 712.286 L241.158 716.221 L227.084 716.221 L227.084 724.693 Q228.102 724.346 229.121 724.184 Q230.139 723.999 231.158 723.999 Q236.945 723.999 240.324 727.17 Q243.704 730.341 243.704 735.758 Q243.704 741.336 240.232 744.438 Q236.76 747.517 230.44 747.517 Q228.264 747.517 225.996 747.147 Q223.75 746.776 221.343 746.036 L221.343 741.336 Q223.426 742.471 225.648 743.026 Q227.871 743.582 230.347 743.582 Q234.352 743.582 236.69 741.475 Q239.028 739.369 239.028 735.758 Q239.028 732.147 236.69 730.04 Q234.352 727.934 230.347 727.934 Q228.473 727.934 226.598 728.35 Q224.746 728.767 222.801 729.647 L222.801 712.286 Z" fill="#000000" fill-rule="nonzero" fill-opacity="1" /><path clip-path="url(#clip850)" d="M126.205 445.916 Q122.593 445.916 120.765 449.48 Q118.959 453.022 118.959 460.152 Q118.959 467.258 120.765 470.823 Q122.593 474.364 126.205 474.364 Q129.839 474.364 131.644 470.823 Q133.473 467.258 133.473 460.152 Q133.473 453.022 131.644 449.48 Q129.839 445.916 126.205 445.916 M126.205 442.212 Q132.015 442.212 135.07 446.818 Q138.149 451.402 138.149 460.152 Q138.149 468.878 135.07 473.485 Q132.015 478.068 126.205 478.068 Q120.394 478.068 117.316 473.485 Q114.26 468.878 114.26 460.152 Q114.26 451.402 117.316 446.818 Q120.394 442.212 126.205 442.212 Z" fill="#000000" fill-rule="nonzero" fill-opacity="1" /><path clip-path="url(#clip850)" d="M146.366 471.517 L151.251 471.517 L151.251 477.397 L146.366 477.397 L146.366 471.517 Z" fill="#000000" fill-rule="nonzero" fill-opacity="1" /><path clip-path="url(#clip850)" d="M171.436 445.916 Q167.825 445.916 165.996 449.48 Q164.19 453.022 164.19 460.152 Q164.19 467.258 165.996 470.823 Q167.825 474.364 171.436 474.364 Q175.07 474.364 176.876 470.823 Q178.704 467.258 178.704 460.152 Q178.704 453.022 176.876 449.48 Q175.07 445.916 171.436 445.916 M171.436 442.212 Q177.246 442.212 180.301 446.818 Q183.38 451.402 183.38 460.152 Q183.38 468.878 180.301 473.485 Q177.246 478.068 171.436 478.068 Q165.626 478.068 162.547 473.485 Q159.491 468.878 159.491 460.152 Q159.491 451.402 162.547 446.818 Q165.626 442.212 171.436 442.212 Z" fill="#000000" fill-rule="nonzero" fill-opacity="1" /><path clip-path="url(#clip850)" d="M195.625 473.462 L211.945 473.462 L211.945 477.397 L190 477.397 L190 473.462 Q192.663 470.707 197.246 466.078 Q201.852 461.425 203.033 460.082 Q205.278 457.559 206.158 455.823 Q207.061 454.064 207.061 452.374 Q207.061 449.619 205.116 447.883 Q203.195 446.147 200.093 446.147 Q197.894 446.147 195.44 446.911 Q193.01 447.675 190.232 449.226 L190.232 444.504 Q193.056 443.369 195.51 442.791 Q197.963 442.212 200 442.212 Q205.371 442.212 208.565 444.897 Q211.76 447.582 211.76 452.073 Q211.76 454.203 210.949 456.124 Q210.162 458.022 208.056 460.615 Q207.477 461.286 204.375 464.503 Q201.274 467.698 195.625 473.462 Z" fill="#000000" fill-rule="nonzero" fill-opacity="1" /><path clip-path="url(#clip850)" d="M231.76 445.916 Q228.148 445.916 226.32 449.48 Q224.514 453.022 224.514 460.152 Q224.514 467.258 226.32 470.823 Q228.148 474.364 231.76 474.364 Q235.394 474.364 237.199 470.823 Q239.028 467.258 239.028 460.152 Q239.028 453.022 237.199 449.48 Q235.394 445.916 231.76 445.916 M231.76 442.212 Q237.57 442.212 240.625 446.818 Q243.704 451.402 243.704 460.152 Q243.704 468.878 240.625 473.485 Q237.57 478.068 231.76 478.068 Q225.949 478.068 222.871 473.485 Q219.815 468.878 219.815 460.152 Q219.815 451.402 222.871 446.818 Q225.949 442.212 231.76 442.212 Z" fill="#000000" fill-rule="nonzero" fill-opacity="1" /><path clip-path="url(#clip850)" d="M127.2 176.467 Q123.589 176.467 121.76 180.032 Q119.955 183.573 119.955 190.703 Q119.955 197.809 121.76 201.374 Q123.589 204.916 127.2 204.916 Q130.834 204.916 132.64 201.374 Q134.468 197.809 134.468 190.703 Q134.468 183.573 132.64 180.032 Q130.834 176.467 127.2 176.467 M127.2 172.763 Q133.01 172.763 136.066 177.37 Q139.144 181.953 139.144 190.703 Q139.144 199.43 136.066 204.036 Q133.01 208.619 127.2 208.619 Q121.39 208.619 118.311 204.036 Q115.256 199.43 115.256 190.703 Q115.256 181.953 118.311 177.37 Q121.39 172.763 127.2 172.763 Z" fill="#000000" fill-rule="nonzero" fill-opacity="1" /><path clip-path="url(#clip850)" d="M147.362 202.068 L152.246 202.068 L152.246 207.948 L147.362 207.948 L147.362 202.068 Z" fill="#000000" fill-rule="nonzero" fill-opacity="1" /><path clip-path="url(#clip850)" d="M172.431 176.467 Q168.82 176.467 166.991 180.032 Q165.186 183.573 165.186 190.703 Q165.186 197.809 166.991 201.374 Q168.82 204.916 172.431 204.916 Q176.065 204.916 177.871 201.374 Q179.7 197.809 179.7 190.703 Q179.7 183.573 177.871 180.032 Q176.065 176.467 172.431 176.467 M172.431 172.763 Q178.241 172.763 181.297 177.37 Q184.376 181.953 184.376 190.703 Q184.376 199.43 181.297 204.036 Q178.241 208.619 172.431 208.619 Q166.621 208.619 163.542 204.036 Q160.487 199.43 160.487 190.703 Q160.487 181.953 163.542 177.37 Q166.621 172.763 172.431 172.763 Z" fill="#000000" fill-rule="nonzero" fill-opacity="1" /><path clip-path="url(#clip850)" d="M196.621 204.013 L212.94 204.013 L212.94 207.948 L190.996 207.948 L190.996 204.013 Q193.658 201.258 198.241 196.629 Q202.848 191.976 204.028 190.633 Q206.274 188.11 207.153 186.374 Q208.056 184.615 208.056 182.925 Q208.056 180.17 206.112 178.434 Q204.19 176.698 201.088 176.698 Q198.889 176.698 196.436 177.462 Q194.005 178.226 191.227 179.777 L191.227 175.055 Q194.051 173.92 196.505 173.342 Q198.959 172.763 200.996 172.763 Q206.366 172.763 209.561 175.448 Q212.755 178.133 212.755 182.624 Q212.755 184.754 211.945 186.675 Q211.158 188.573 209.051 191.166 Q208.473 191.837 205.371 195.055 Q202.269 198.249 196.621 204.013 Z" fill="#000000" fill-rule="nonzero" fill-opacity="1" /><path clip-path="url(#clip850)" d="M222.801 173.388 L241.158 173.388 L241.158 177.323 L227.084 177.323 L227.084 185.795 Q228.102 185.448 229.121 185.286 Q230.139 185.101 231.158 185.101 Q236.945 185.101 240.324 188.272 Q243.704 191.444 243.704 196.86 Q243.704 202.439 240.232 205.541 Q236.76 208.619 230.44 208.619 Q228.264 208.619 225.996 208.249 Q223.75 207.879 221.343 207.138 L221.343 202.439 Q223.426 203.573 225.648 204.129 Q227.871 204.684 230.347 204.684 Q234.352 204.684 236.69 202.578 Q239.028 200.471 239.028 196.86 Q239.028 193.249 236.69 191.143 Q234.352 189.036 230.347 189.036 Q228.473 189.036 226.598 189.453 Q224.746 189.869 222.801 190.749 L222.801 173.388 Z" fill="#000000" fill-rule="nonzero" fill-opacity="1" /><path clip-path="url(#clip850)" d="M16.4842 1302.33 L16.4842 1295.84 L56.6518 1285.84 L16.4842 1275.88 L16.4842 1268.66 L56.6518 1258.66 L16.4842 1248.7 L16.4842 1242.18 L64.0042 1254.11 L64.0042 1262.2 L22.7544 1272.22 L64.0042 1282.34 L64.0042 1290.43 L16.4842 1302.33 Z" fill="#000000" fill-rule="nonzero" fill-opacity="1" /><path clip-path="url(#clip850)" d="M46.0847 1221.87 Q46.0847 1228.97 47.7079 1231.7 Q49.3312 1234.44 53.2461 1234.44 Q56.3653 1234.44 58.2114 1232.4 Q60.0256 1230.34 60.0256 1226.8 Q60.0256 1221.93 56.5881 1219.01 Q53.1188 1216.04 47.3897 1216.04 L46.0847 1216.04 L46.0847 1221.87 M43.6657 1210.19 L64.0042 1210.19 L64.0042 1216.04 L58.5933 1216.04 Q61.8398 1218.05 63.3994 1221.04 Q64.9272 1224.03 64.9272 1228.36 Q64.9272 1233.84 61.8716 1237.08 Q58.7843 1240.3 53.6281 1240.3 Q47.6125 1240.3 44.5569 1236.29 Q41.5014 1232.25 41.5014 1224.26 L41.5014 1216.04 L40.9285 1216.04 Q36.8862 1216.04 34.6901 1218.72 Q32.4621 1221.36 32.4621 1226.17 Q32.4621 1229.22 33.1941 1232.12 Q33.9262 1235.01 35.3903 1237.69 L29.9795 1237.69 Q28.7381 1234.47 28.1334 1231.45 Q27.4968 1228.43 27.4968 1225.56 Q27.4968 1217.83 31.5072 1214.01 Q35.5176 1210.19 43.6657 1210.19 Z" fill="#000000" fill-rule="nonzero" fill-opacity="1" /><path clip-path="url(#clip850)" d="M28.3562 1202.33 L28.3562 1196.12 L58.275 1184.98 L28.3562 1173.84 L28.3562 1167.63 L64.0042 1181 L64.0042 1188.96 L28.3562 1202.33 Z" fill="#000000" fill-rule="nonzero" fill-opacity="1" /><path clip-path="url(#clip850)" d="M44.7161 1129.06 L47.5806 1129.06 L47.5806 1155.98 Q53.6281 1155.6 56.8109 1152.36 Q59.9619 1149.08 59.9619 1143.25 Q59.9619 1139.88 59.1344 1136.73 Q58.3069 1133.55 56.6518 1130.43 L62.1899 1130.43 Q63.5267 1133.58 64.227 1136.89 Q64.9272 1140.2 64.9272 1143.6 Q64.9272 1152.13 59.9619 1157.13 Q54.9967 1162.1 46.5303 1162.1 Q37.7774 1162.1 32.6531 1157.38 Q27.4968 1152.64 27.4968 1144.62 Q27.4968 1137.43 32.1438 1133.26 Q36.7589 1129.06 44.7161 1129.06 M42.9973 1134.91 Q38.1912 1134.98 35.3266 1137.62 Q32.4621 1140.23 32.4621 1144.56 Q32.4621 1149.46 35.2312 1152.42 Q38.0002 1155.35 43.0292 1155.79 L42.9973 1134.91 Z" fill="#000000" fill-rule="nonzero" fill-opacity="1" /><path clip-path="url(#clip850)" d="M33.8307 1078.07 Q33.2578 1079.05 33.0032 1080.23 Q32.7167 1081.38 32.7167 1082.78 Q32.7167 1087.74 35.9632 1090.42 Q39.1779 1093.06 45.2253 1093.06 L64.0042 1093.06 L64.0042 1098.95 L28.3562 1098.95 L28.3562 1093.06 L33.8944 1093.06 Q30.6479 1091.21 29.0883 1088.25 Q27.4968 1085.29 27.4968 1081.06 Q27.4968 1080.46 27.5923 1079.72 Q27.656 1078.99 27.8151 1078.1 L33.8307 1078.07 Z" fill="#000000" fill-rule="nonzero" fill-opacity="1" /><path clip-path="url(#clip850)" d="M44.7161 1042.87 L47.5806 1042.87 L47.5806 1069.79 Q53.6281 1069.41 56.8109 1066.16 Q59.9619 1062.89 59.9619 1057.06 Q59.9619 1053.69 59.1344 1050.54 Q58.3069 1047.35 56.6518 1044.23 L62.1899 1044.23 Q63.5267 1047.39 64.227 1050.7 Q64.9272 1054.01 64.9272 1057.41 Q64.9272 1065.94 59.9619 1070.94 Q54.9967 1075.9 46.5303 1075.9 Q37.7774 1075.9 32.6531 1071.19 Q27.4968 1066.45 27.4968 1058.43 Q27.4968 1051.24 32.1438 1047.07 Q36.7589 1042.87 44.7161 1042.87 M42.9973 1048.72 Q38.1912 1048.79 35.3266 1051.43 Q32.4621 1054.04 32.4621 1058.37 Q32.4621 1063.27 35.2312 1066.23 Q38.0002 1069.16 43.0292 1069.6 L42.9973 1048.72 Z" fill="#000000" fill-rule="nonzero" fill-opacity="1" /><path clip-path="url(#clip850)" d="M29.4065 1010.53 L34.9447 1010.53 Q33.6716 1013.01 33.035 1015.68 Q32.3984 1018.36 32.3984 1021.22 Q32.3984 1025.58 33.7352 1027.78 Q35.072 1029.94 37.7456 1029.94 Q39.7826 1029.94 40.9603 1028.38 Q42.1061 1026.82 43.1565 1022.11 L43.6021 1020.11 Q44.9389 1013.87 47.3897 1011.26 Q49.8086 1008.62 54.1691 1008.62 Q59.1344 1008.62 62.0308 1012.57 Q64.9272 1016.48 64.9272 1023.36 Q64.9272 1026.22 64.3543 1029.34 Q63.8132 1032.43 62.6992 1035.86 L56.6518 1035.86 Q58.3387 1032.62 59.198 1029.47 Q60.0256 1026.32 60.0256 1023.23 Q60.0256 1019.09 58.6251 1016.86 Q57.1929 1014.63 54.6147 1014.63 Q52.2276 1014.63 50.9545 1016.26 Q49.6813 1017.85 48.5037 1023.29 L48.0262 1025.33 Q46.8804 1030.77 44.5251 1033.19 Q42.138 1035.61 38.0002 1035.61 Q32.9713 1035.61 30.2341 1032.04 Q27.4968 1028.48 27.4968 1021.92 Q27.4968 1018.68 27.9743 1015.81 Q28.4517 1012.95 29.4065 1010.53 Z" fill="#000000" fill-rule="nonzero" fill-opacity="1" /><path clip-path="url(#clip850)" d="M28.3562 999.293 L28.3562 993.436 L64.0042 993.436 L64.0042 999.293 L28.3562 999.293 M14.479 999.293 L14.479 993.436 L21.895 993.436 L21.895 999.293 L14.479 999.293 Z" fill="#000000" fill-rule="nonzero" fill-opacity="1" /><path clip-path="url(#clip850)" d="M29.4065 958.457 L34.9447 958.457 Q33.6716 960.939 33.035 963.613 Q32.3984 966.286 32.3984 969.151 Q32.3984 973.512 33.7352 975.708 Q35.072 977.872 37.7456 977.872 Q39.7826 977.872 40.9603 976.312 Q42.1061 974.753 43.1565 970.042 L43.6021 968.037 Q44.9389 961.799 47.3897 959.189 Q49.8086 956.547 54.1691 956.547 Q59.1344 956.547 62.0308 960.494 Q64.9272 964.409 64.9272 971.284 Q64.9272 974.148 64.3543 977.267 Q63.8132 980.355 62.6992 983.792 L56.6518 983.792 Q58.3387 980.546 59.198 977.395 Q60.0256 974.244 60.0256 971.156 Q60.0256 967.019 58.6251 964.791 Q57.1929 962.563 54.6147 962.563 Q52.2276 962.563 50.9545 964.186 Q49.6813 965.777 48.5037 971.22 L48.0262 973.257 Q46.8804 978.7 44.5251 981.119 Q42.138 983.538 38.0002 983.538 Q32.9713 983.538 30.2341 979.973 Q27.4968 976.408 27.4968 969.851 Q27.4968 966.605 27.9743 963.74 Q28.4517 960.876 29.4065 958.457 Z" fill="#000000" fill-rule="nonzero" fill-opacity="1" /><path clip-path="url(#clip850)" d="M18.2347 941.428 L28.3562 941.428 L28.3562 929.365 L32.9077 929.365 L32.9077 941.428 L52.2594 941.428 Q56.6199 941.428 57.8613 940.251 Q59.1026 939.041 59.1026 935.381 L59.1026 929.365 L64.0042 929.365 L64.0042 935.381 Q64.0042 942.16 61.4897 944.739 Q58.9434 947.317 52.2594 947.317 L32.9077 947.317 L32.9077 951.614 L28.3562 951.614 L28.3562 947.317 L18.2347 947.317 L18.2347 941.428 Z" fill="#000000" fill-rule="nonzero" fill-opacity="1" /><path clip-path="url(#clip850)" d="M46.0847 905.462 Q46.0847 912.56 47.7079 915.297 Q49.3312 918.034 53.2461 918.034 Q56.3653 918.034 58.2114 915.997 Q60.0256 913.929 60.0256 910.396 Q60.0256 905.526 56.5881 902.598 Q53.1188 899.638 47.3897 899.638 L46.0847 899.638 L46.0847 905.462 M43.6657 893.781 L64.0042 893.781 L64.0042 899.638 L58.5933 899.638 Q61.8398 901.643 63.3994 904.635 Q64.9272 907.626 64.9272 911.955 Q64.9272 917.43 61.8716 920.676 Q58.7843 923.891 53.6281 923.891 Q47.6125 923.891 44.5569 919.88 Q41.5014 915.838 41.5014 907.849 L41.5014 899.638 L40.9285 899.638 Q36.8862 899.638 34.6901 902.311 Q32.4621 904.953 32.4621 909.759 Q32.4621 912.815 33.1941 915.711 Q33.9262 918.607 35.3903 921.281 L29.9795 921.281 Q28.7381 918.066 28.1334 915.043 Q27.4968 912.019 27.4968 909.154 Q27.4968 901.42 31.5072 897.6 Q35.5176 893.781 43.6657 893.781 Z" fill="#000000" fill-rule="nonzero" fill-opacity="1" /><path clip-path="url(#clip850)" d="M42.4881 852.086 L64.0042 852.086 L64.0042 857.942 L42.679 857.942 Q37.6183 857.942 35.1038 859.916 Q32.5894 861.889 32.5894 865.836 Q32.5894 870.578 35.6131 873.315 Q38.6368 876.053 43.8567 876.053 L64.0042 876.053 L64.0042 881.941 L28.3562 881.941 L28.3562 876.053 L33.8944 876.053 Q30.6797 873.952 29.0883 871.119 Q27.4968 868.255 27.4968 864.531 Q27.4968 858.388 31.3163 855.237 Q35.1038 852.086 42.4881 852.086 Z" fill="#000000" fill-rule="nonzero" fill-opacity="1" /><path clip-path="url(#clip850)" d="M29.7248 814.751 L35.1993 814.751 Q33.8307 817.233 33.1623 819.748 Q32.4621 822.231 32.4621 824.777 Q32.4621 830.474 36.0905 833.625 Q39.6872 836.776 46.212 836.776 Q52.7369 836.776 56.3653 833.625 Q59.9619 830.474 59.9619 824.777 Q59.9619 822.231 59.2935 819.748 Q58.5933 817.233 57.2247 814.751 L62.6355 814.751 Q63.7814 817.202 64.3543 819.843 Q64.9272 822.453 64.9272 825.413 Q64.9272 833.466 59.8664 838.208 Q54.8057 842.951 46.212 842.951 Q37.491 842.951 32.4939 838.177 Q27.4968 833.371 27.4968 825.031 Q27.4968 822.326 28.0697 819.748 Q28.6108 817.17 29.7248 814.751 Z" fill="#000000" fill-rule="nonzero" fill-opacity="1" /><path clip-path="url(#clip850)" d="M44.7161 774.074 L47.5806 774.074 L47.5806 801.001 Q53.6281 800.619 56.8109 797.372 Q59.9619 794.094 59.9619 788.269 Q59.9619 784.896 59.1344 781.745 Q58.3069 778.562 56.6518 775.443 L62.1899 775.443 Q63.5267 778.594 64.227 781.904 Q64.9272 785.214 64.9272 788.62 Q64.9272 797.15 59.9619 802.147 Q54.9967 807.112 46.5303 807.112 Q37.7774 807.112 32.6531 802.401 Q27.4968 797.659 27.4968 789.638 Q27.4968 782.445 32.1438 778.275 Q36.7589 774.074 44.7161 774.074 M42.9973 779.93 Q38.1912 779.994 35.3266 782.636 Q32.4621 785.246 32.4621 789.574 Q32.4621 794.476 35.2312 797.436 Q38.0002 800.364 43.0292 800.81 L42.9973 779.93 Z" fill="#000000" fill-rule="nonzero" fill-opacity="1" /><path clip-path="url(#clip850)" d="M29.7248 718.088 L35.1993 718.088 Q33.8307 720.57 33.1623 723.085 Q32.4621 725.567 32.4621 728.114 Q32.4621 733.811 36.0905 736.962 Q39.6872 740.113 46.212 740.113 Q52.7369 740.113 56.3653 736.962 Q59.9619 733.811 59.9619 728.114 Q59.9619 725.567 59.2935 723.085 Q58.5933 720.57 57.2247 718.088 L62.6355 718.088 Q63.7814 720.538 64.3543 723.18 Q64.9272 725.79 64.9272 728.75 Q64.9272 736.803 59.8664 741.545 Q54.8057 746.288 46.212 746.288 Q37.491 746.288 32.4939 741.513 Q27.4968 736.707 27.4968 728.368 Q27.4968 725.663 28.0697 723.085 Q28.6108 720.507 29.7248 718.088 Z" fill="#000000" fill-rule="nonzero" fill-opacity="1" /><path clip-path="url(#clip850)" d="M32.4621 694.089 Q32.4621 698.799 36.1542 701.537 Q39.8145 704.274 46.212 704.274 Q52.6095 704.274 56.3017 701.569 Q59.9619 698.831 59.9619 694.089 Q59.9619 689.41 56.2698 686.673 Q52.5777 683.936 46.212 683.936 Q39.8781 683.936 36.186 686.673 Q32.4621 689.41 32.4621 694.089 M27.4968 694.089 Q27.4968 686.45 32.4621 682.089 Q37.4273 677.729 46.212 677.729 Q54.9649 677.729 59.9619 682.089 Q64.9272 686.45 64.9272 694.089 Q64.9272 701.76 59.9619 706.12 Q54.9649 710.449 46.212 710.449 Q37.4273 710.449 32.4621 706.12 Q27.4968 701.76 27.4968 694.089 Z" fill="#000000" fill-rule="nonzero" fill-opacity="1" /><path clip-path="url(#clip850)" d="M44.7161 637.53 L47.5806 637.53 L47.5806 664.456 Q53.6281 664.075 56.8109 660.828 Q59.9619 657.55 59.9619 651.725 Q59.9619 648.351 59.1344 645.2 Q58.3069 642.017 56.6518 638.898 L62.1899 638.898 Q63.5267 642.049 64.227 645.359 Q64.9272 648.67 64.9272 652.075 Q64.9272 660.605 59.9619 665.602 Q54.9967 670.568 46.5303 670.568 Q37.7774 670.568 32.6531 665.857 Q27.4968 661.114 27.4968 653.094 Q27.4968 645.9 32.1438 641.731 Q36.7589 637.53 44.7161 637.53 M42.9973 643.386 Q38.1912 643.45 35.3266 646.091 Q32.4621 648.701 32.4621 653.03 Q32.4621 657.932 35.2312 660.892 Q38.0002 663.82 43.0292 664.266 L42.9973 643.386 Z" fill="#000000" fill-rule="nonzero" fill-opacity="1" /><path clip-path="url(#clip850)" d="M14.479 609.871 L19.3487 609.871 L19.3487 615.472 Q19.3487 618.623 20.6219 619.865 Q21.895 621.074 25.2052 621.074 L28.3562 621.074 L28.3562 611.43 L32.9077 611.43 L32.9077 621.074 L64.0042 621.074 L64.0042 626.962 L32.9077 626.962 L32.9077 632.564 L28.3562 632.564 L28.3562 626.962 L25.8736 626.962 Q19.9216 626.962 17.2162 624.193 Q14.479 621.424 14.479 615.409 L14.479 609.871 Z" fill="#000000" fill-rule="nonzero" fill-opacity="1" /><path clip-path="url(#clip850)" d="M14.479 586.922 L19.3487 586.922 L19.3487 592.524 Q19.3487 595.675 20.6219 596.916 Q21.895 598.126 25.2052 598.126 L28.3562 598.126 L28.3562 588.482 L32.9077 588.482 L32.9077 598.126 L64.0042 598.126 L64.0042 604.014 L32.9077 604.014 L32.9077 609.616 L28.3562 609.616 L28.3562 604.014 L25.8736 604.014 Q19.9216 604.014 17.2162 601.245 Q14.479 598.476 14.479 592.46 L14.479 586.922 Z" fill="#000000" fill-rule="nonzero" fill-opacity="1" /><path clip-path="url(#clip850)" d="M28.3562 582.021 L28.3562 576.164 L64.0042 576.164 L64.0042 582.021 L28.3562 582.021 M14.479 582.021 L14.479 576.164 L21.895 576.164 L21.895 582.021 L14.479 582.021 Z" fill="#000000" fill-rule="nonzero" fill-opacity="1" /><path clip-path="url(#clip850)" d="M29.7248 538.256 L35.1993 538.256 Q33.8307 540.739 33.1623 543.253 Q32.4621 545.736 32.4621 548.282 Q32.4621 553.98 36.0905 557.131 Q39.6872 560.282 46.212 560.282 Q52.7369 560.282 56.3653 557.131 Q59.9619 553.98 59.9619 548.282 Q59.9619 545.736 59.2935 543.253 Q58.5933 540.739 57.2247 538.256 L62.6355 538.256 Q63.7814 540.707 64.3543 543.349 Q64.9272 545.959 64.9272 548.919 Q64.9272 556.972 59.8664 561.714 Q54.8057 566.456 46.212 566.456 Q37.491 566.456 32.4939 561.682 Q27.4968 556.876 27.4968 548.537 Q27.4968 545.832 28.0697 543.253 Q28.6108 540.675 29.7248 538.256 Z" fill="#000000" fill-rule="nonzero" fill-opacity="1" /><path clip-path="url(#clip850)" d="M28.3562 528.071 L28.3562 522.215 L64.0042 522.215 L64.0042 528.071 L28.3562 528.071 M14.479 528.071 L14.479 522.215 L21.895 522.215 L21.895 528.071 L14.479 528.071 Z" fill="#000000" fill-rule="nonzero" fill-opacity="1" /><path clip-path="url(#clip850)" d="M44.7161 479.469 L47.5806 479.469 L47.5806 506.396 Q53.6281 506.014 56.8109 502.768 Q59.9619 499.489 59.9619 493.665 Q59.9619 490.291 59.1344 487.14 Q58.3069 483.957 56.6518 480.838 L62.1899 480.838 Q63.5267 483.989 64.227 487.299 Q64.9272 490.609 64.9272 494.015 Q64.9272 502.545 59.9619 507.542 Q54.9967 512.507 46.5303 512.507 Q37.7774 512.507 32.6531 507.796 Q27.4968 503.054 27.4968 495.033 Q27.4968 487.84 32.1438 483.67 Q36.7589 479.469 44.7161 479.469 M42.9973 485.326 Q38.1912 485.389 35.3266 488.031 Q32.4621 490.641 32.4621 494.97 Q32.4621 499.871 35.2312 502.831 Q38.0002 505.759 43.0292 506.205 L42.9973 485.326 Z" fill="#000000" fill-rule="nonzero" fill-opacity="1" /><path clip-path="url(#clip850)" d="M42.4881 440.224 L64.0042 440.224 L64.0042 446.081 L42.679 446.081 Q37.6183 446.081 35.1038 448.054 Q32.5894 450.028 32.5894 453.974 Q32.5894 458.717 35.6131 461.454 Q38.6368 464.191 43.8567 464.191 L64.0042 464.191 L64.0042 470.08 L28.3562 470.08 L28.3562 464.191 L33.8944 464.191 Q30.6797 462.091 29.0883 459.258 Q27.4968 456.393 27.4968 452.669 Q27.4968 446.527 31.3163 443.375 Q35.1038 440.224 42.4881 440.224 Z" fill="#000000" fill-rule="nonzero" fill-opacity="1" /><path clip-path="url(#clip850)" d="M18.2347 422.751 L28.3562 422.751 L28.3562 410.688 L32.9077 410.688 L32.9077 422.751 L52.2594 422.751 Q56.6199 422.751 57.8613 421.573 Q59.1026 420.363 59.1026 416.703 L59.1026 410.688 L64.0042 410.688 L64.0042 416.703 Q64.0042 423.483 61.4897 426.061 Q58.9434 428.639 52.2594 428.639 L32.9077 428.639 L32.9077 432.936 L28.3562 432.936 L28.3562 428.639 L18.2347 428.639 L18.2347 422.751 Z" fill="#000000" fill-rule="nonzero" fill-opacity="1" /><path clip-path="url(#clip850)" d="M14.5426 368.196 Q21.8632 372.462 29.0246 374.53 Q36.186 376.599 43.5384 376.599 Q50.8908 376.599 58.1159 374.53 Q65.3091 372.43 72.5979 368.196 L72.5979 373.289 Q65.1182 378.063 57.8931 380.45 Q50.668 382.806 43.5384 382.806 Q36.4406 382.806 29.2474 380.45 Q22.0542 378.095 14.5426 373.289 L14.5426 368.196 Z" fill="#000000" fill-rule="nonzero" fill-opacity="1" /><path clip-path="url(#clip850)" d="M20.1444 320.995 L26.9239 320.995 Q23.9002 324.241 22.4043 327.933 Q20.9083 331.594 20.9083 335.731 Q20.9083 343.88 25.9054 348.208 Q30.8707 352.537 40.2919 352.537 Q49.6813 352.537 54.6784 348.208 Q59.6436 343.88 59.6436 335.731 Q59.6436 331.594 58.1477 327.933 Q56.6518 324.241 53.6281 320.995 L60.3439 320.995 Q62.6355 324.369 63.7814 328.156 Q64.9272 331.912 64.9272 336.113 Q64.9272 346.903 58.3387 353.11 Q51.7183 359.316 40.2919 359.316 Q28.8336 359.316 22.2451 353.11 Q15.6248 346.903 15.6248 336.113 Q15.6248 331.848 16.7706 328.093 Q17.8846 324.305 20.1444 320.995 Z" fill="#000000" fill-rule="nonzero" fill-opacity="1" /><path clip-path="url(#clip850)" d="M28.3562 314.725 L28.3562 308.868 L56.1743 301.548 L28.3562 294.259 L28.3562 287.352 L56.1743 280.031 L28.3562 272.743 L28.3562 266.886 L64.0042 276.212 L64.0042 283.119 L34.7856 290.79 L64.0042 298.492 L64.0042 305.399 L28.3562 314.725 Z" fill="#000000" fill-rule="nonzero" fill-opacity="1" /><path clip-path="url(#clip850)" d="M14.5426 258.929 L14.5426 253.837 Q22.0542 249.062 29.2474 246.707 Q36.4406 244.32 43.5384 244.32 Q50.668 244.32 57.8931 246.707 Q65.1182 249.062 72.5979 253.837 L72.5979 258.929 Q65.3091 254.696 58.1159 252.627 Q50.8908 250.526 43.5384 250.526 Q36.186 250.526 29.0246 252.627 Q21.8632 254.696 14.5426 258.929 Z" fill="#000000" fill-rule="nonzero" fill-opacity="1" /><path clip-path="url(#clip850)" d="M807.477 63.9476 L807.477 47.7034 L794.109 47.7034 L794.109 40.9789 L815.579 40.9789 L815.579 66.9452 Q810.839 70.3075 805.127 72.0494 Q799.416 73.7508 792.934 73.7508 Q778.756 73.7508 770.735 65.4869 Q762.755 57.1826 762.755 42.3968 Q762.755 27.5705 770.735 19.3066 Q778.756 11.0023 792.934 11.0023 Q798.848 11.0023 804.155 12.4606 Q809.502 13.9189 813.999 16.7545 L813.999 25.464 Q809.462 21.6156 804.358 19.6712 Q799.254 17.7268 793.623 17.7268 Q782.523 17.7268 776.933 23.9246 Q771.383 30.1225 771.383 42.3968 Q771.383 54.6305 776.933 60.8284 Q782.523 67.0263 793.623 67.0263 Q797.957 67.0263 801.36 66.2971 Q804.763 65.5274 807.477 63.9476 Z" fill="#000000" fill-rule="nonzero" fill-opacity="1" /><path clip-path="url(#clip850)" d="M856.493 34.1734 Q855.237 33.4443 853.738 33.1202 Q852.28 32.7556 850.497 32.7556 Q844.178 32.7556 840.775 36.8875 Q837.413 40.9789 837.413 48.6757 L837.413 72.576 L829.919 72.576 L829.919 27.2059 L837.413 27.2059 L837.413 34.2544 Q839.763 30.1225 843.53 28.1376 Q847.297 26.1121 852.685 26.1121 Q853.455 26.1121 854.386 26.2337 Q855.318 26.3147 856.452 26.5172 L856.493 34.1734 Z" fill="#000000" fill-rule="nonzero" fill-opacity="1" /><path clip-path="url(#clip850)" d="M864.311 27.2059 L871.765 27.2059 L871.765 72.576 L864.311 72.576 L864.311 27.2059 M864.311 9.54393 L871.765 9.54393 L871.765 18.9825 L864.311 18.9825 L864.311 9.54393 Z" fill="#000000" fill-rule="nonzero" fill-opacity="1" /><path clip-path="url(#clip850)" d="M917.216 34.0924 L917.216 9.54393 L924.67 9.54393 L924.67 72.576 L917.216 72.576 L917.216 65.7705 Q914.866 69.8214 911.261 71.8063 Q907.696 73.7508 902.673 73.7508 Q894.45 73.7508 889.265 67.1883 Q884.12 60.6258 884.12 49.9314 Q884.12 39.2371 889.265 32.6746 Q894.45 26.1121 902.673 26.1121 Q907.696 26.1121 911.261 28.0971 Q914.866 30.0415 917.216 34.0924 M891.817 49.9314 Q891.817 58.1548 895.179 62.8538 Q898.582 67.5124 904.496 67.5124 Q910.41 67.5124 913.813 62.8538 Q917.216 58.1548 917.216 49.9314 Q917.216 41.7081 913.813 37.0496 Q910.41 32.3505 904.496 32.3505 Q898.582 32.3505 895.179 37.0496 Q891.817 41.7081 891.817 49.9314 Z" fill="#000000" fill-rule="nonzero" fill-opacity="1" /><path clip-path="url(#clip850)" d="M1012.01 16.7545 L1012.01 25.383 Q1007.88 21.5346 1003.18 19.6307 Q998.517 17.7268 993.251 17.7268 Q982.881 17.7268 977.372 24.0867 Q971.863 30.4061 971.863 42.3968 Q971.863 54.3469 977.372 60.7069 Q982.881 67.0263 993.251 67.0263 Q998.517 67.0263 1003.18 65.1223 Q1007.88 63.2184 1012.01 59.3701 L1012.01 67.9175 Q1007.71 70.8341 1002.89 72.2924 Q998.112 73.7508 992.765 73.7508 Q979.033 73.7508 971.133 65.3654 Q963.234 56.9395 963.234 42.3968 Q963.234 27.8135 971.133 19.4281 Q979.033 11.0023 992.765 11.0023 Q998.193 11.0023 1002.97 12.4606 Q1007.79 13.8784 1012.01 16.7545 Z" fill="#000000" fill-rule="nonzero" fill-opacity="1" /><path clip-path="url(#clip850)" d="M1041.9 32.4315 Q1035.91 32.4315 1032.42 37.1306 Q1028.94 41.7891 1028.94 49.9314 Q1028.94 58.0738 1032.38 62.7728 Q1035.87 67.4314 1041.9 67.4314 Q1047.86 67.4314 1051.34 62.7323 Q1054.83 58.0333 1054.83 49.9314 Q1054.83 41.8701 1051.34 37.1711 Q1047.86 32.4315 1041.9 32.4315 M1041.9 26.1121 Q1051.62 26.1121 1057.17 32.4315 Q1062.72 38.7509 1062.72 49.9314 Q1062.72 61.0714 1057.17 67.4314 Q1051.62 73.7508 1041.9 73.7508 Q1032.14 73.7508 1026.59 67.4314 Q1021.08 61.0714 1021.08 49.9314 Q1021.08 38.7509 1026.59 32.4315 Q1032.14 26.1121 1041.9 26.1121 Z" fill="#000000" fill-rule="nonzero" fill-opacity="1" /><path clip-path="url(#clip850)" d="M1112.79 45.1919 L1112.79 72.576 L1105.34 72.576 L1105.34 45.4349 Q1105.34 38.994 1102.83 35.7938 Q1100.32 32.5936 1095.29 32.5936 Q1089.26 32.5936 1085.77 36.4419 Q1082.29 40.2903 1082.29 46.9338 L1082.29 72.576 L1074.8 72.576 L1074.8 27.2059 L1082.29 27.2059 L1082.29 34.2544 Q1084.96 30.163 1088.57 28.1376 Q1092.21 26.1121 1096.95 26.1121 Q1104.77 26.1121 1108.78 30.9732 Q1112.79 35.7938 1112.79 45.1919 Z" fill="#000000" fill-rule="nonzero" fill-opacity="1" /><path clip-path="url(#clip850)" d="M1122.31 27.2059 L1130.21 27.2059 L1144.39 65.2844 L1158.57 27.2059 L1166.47 27.2059 L1149.45 72.576 L1139.33 72.576 L1122.31 27.2059 Z" fill="#000000" fill-rule="nonzero" fill-opacity="1" /><path clip-path="url(#clip850)" d="M1215.56 48.0275 L1215.56 51.6733 L1181.29 51.6733 Q1181.78 59.3701 1185.91 63.421 Q1190.08 67.4314 1197.5 67.4314 Q1201.79 67.4314 1205.8 66.3781 Q1209.85 65.3249 1213.82 63.2184 L1213.82 70.267 Q1209.81 71.9684 1205.6 72.8596 Q1201.39 73.7508 1197.05 73.7508 Q1186.2 73.7508 1179.84 67.4314 Q1173.52 61.1119 1173.52 50.3365 Q1173.52 39.1965 1179.51 32.6746 Q1185.55 26.1121 1195.76 26.1121 Q1204.91 26.1121 1210.22 32.0264 Q1215.56 37.9003 1215.56 48.0275 M1208.11 45.84 Q1208.03 39.7232 1204.67 36.0774 Q1201.35 32.4315 1195.84 32.4315 Q1189.6 32.4315 1185.83 35.9558 Q1182.1 39.4801 1181.54 45.8805 L1208.11 45.84 Z" fill="#000000" fill-rule="nonzero" fill-opacity="1" /><path clip-path="url(#clip850)" d="M1254.09 34.1734 Q1252.83 33.4443 1251.33 33.1202 Q1249.88 32.7556 1248.09 32.7556 Q1241.77 32.7556 1238.37 36.8875 Q1235.01 40.9789 1235.01 48.6757 L1235.01 72.576 L1227.52 72.576 L1227.52 27.2059 L1235.01 27.2059 L1235.01 34.2544 Q1237.36 30.1225 1241.13 28.1376 Q1244.89 26.1121 1250.28 26.1121 Q1251.05 26.1121 1251.98 26.2337 Q1252.91 26.3147 1254.05 26.5172 L1254.09 34.1734 Z" fill="#000000" fill-rule="nonzero" fill-opacity="1" /><path clip-path="url(#clip850)" d="M1290.3 49.3643 Q1290.3 41.2625 1286.94 36.8065 Q1283.62 32.3505 1277.58 32.3505 Q1271.59 32.3505 1268.23 36.8065 Q1264.9 41.2625 1264.9 49.3643 Q1264.9 57.4256 1268.23 61.8816 Q1271.59 66.3376 1277.58 66.3376 Q1283.62 66.3376 1286.94 61.8816 Q1290.3 57.4256 1290.3 49.3643 M1297.76 66.9452 Q1297.76 78.5308 1292.61 84.1616 Q1287.47 89.8329 1276.86 89.8329 Q1272.93 89.8329 1269.44 89.2252 Q1265.96 88.6581 1262.68 87.4428 L1262.68 80.1917 Q1265.96 81.9741 1269.16 82.8248 Q1272.36 83.6755 1275.68 83.6755 Q1283.01 83.6755 1286.66 79.8271 Q1290.3 76.0193 1290.3 68.282 L1290.3 64.5957 Q1288 68.6061 1284.39 70.5911 Q1280.78 72.576 1275.76 72.576 Q1267.42 72.576 1262.31 66.2161 Q1257.21 59.8562 1257.21 49.3643 Q1257.21 38.832 1262.31 32.472 Q1267.42 26.1121 1275.76 26.1121 Q1280.78 26.1121 1284.39 28.0971 Q1288 30.082 1290.3 34.0924 L1290.3 27.2059 L1297.76 27.2059 L1297.76 66.9452 Z" fill="#000000" fill-rule="nonzero" fill-opacity="1" /><path clip-path="url(#clip850)" d="M1351.92 48.0275 L1351.92 51.6733 L1317.65 51.6733 Q1318.13 59.3701 1322.27 63.421 Q1326.44 67.4314 1333.85 67.4314 Q1338.15 67.4314 1342.16 66.3781 Q1346.21 65.3249 1350.18 63.2184 L1350.18 70.267 Q1346.17 71.9684 1341.95 72.8596 Q1337.74 73.7508 1333.41 73.7508 Q1322.55 73.7508 1316.19 67.4314 Q1309.87 61.1119 1309.87 50.3365 Q1309.87 39.1965 1315.87 32.6746 Q1321.9 26.1121 1332.11 26.1121 Q1341.26 26.1121 1346.57 32.0264 Q1351.92 37.9003 1351.92 48.0275 M1344.46 45.84 Q1344.38 39.7232 1341.02 36.0774 Q1337.7 32.4315 1332.19 32.4315 Q1325.95 32.4315 1322.18 35.9558 Q1318.46 39.4801 1317.89 45.8805 L1344.46 45.84 Z" fill="#000000" fill-rule="nonzero" fill-opacity="1" /><path clip-path="url(#clip850)" d="M1401.87 45.1919 L1401.87 72.576 L1394.41 72.576 L1394.41 45.4349 Q1394.41 38.994 1391.9 35.7938 Q1389.39 32.5936 1384.37 32.5936 Q1378.33 32.5936 1374.85 36.4419 Q1371.36 40.2903 1371.36 46.9338 L1371.36 72.576 L1363.87 72.576 L1363.87 27.2059 L1371.36 27.2059 L1371.36 34.2544 Q1374.04 30.163 1377.64 28.1376 Q1381.29 26.1121 1386.03 26.1121 Q1393.85 26.1121 1397.86 30.9732 Q1401.87 35.7938 1401.87 45.1919 Z" fill="#000000" fill-rule="nonzero" fill-opacity="1" /><path clip-path="url(#clip850)" d="M1449.38 28.9478 L1449.38 35.9153 Q1446.22 34.1734 1443.02 33.3227 Q1439.86 32.4315 1436.62 32.4315 Q1429.37 32.4315 1425.36 37.0496 Q1421.35 41.6271 1421.35 49.9314 Q1421.35 58.2358 1425.36 62.8538 Q1429.37 67.4314 1436.62 67.4314 Q1439.86 67.4314 1443.02 66.5807 Q1446.22 65.6895 1449.38 63.9476 L1449.38 70.8341 Q1446.26 72.2924 1442.9 73.0216 Q1439.58 73.7508 1435.81 73.7508 Q1425.56 73.7508 1419.53 67.3098 Q1413.49 60.8689 1413.49 49.9314 Q1413.49 38.832 1419.57 32.472 Q1425.69 26.1121 1436.3 26.1121 Q1439.74 26.1121 1443.02 26.8413 Q1446.3 27.5299 1449.38 28.9478 Z" fill="#000000" fill-rule="nonzero" fill-opacity="1" /><path clip-path="url(#clip850)" d="M1501.15 48.0275 L1501.15 51.6733 L1466.88 51.6733 Q1467.37 59.3701 1471.5 63.421 Q1475.67 67.4314 1483.09 67.4314 Q1487.38 67.4314 1491.39 66.3781 Q1495.44 65.3249 1499.41 63.2184 L1499.41 70.267 Q1495.4 71.9684 1491.19 72.8596 Q1486.98 73.7508 1482.64 73.7508 Q1471.78 73.7508 1465.42 67.4314 Q1459.11 61.1119 1459.11 50.3365 Q1459.11 39.1965 1465.1 32.6746 Q1471.14 26.1121 1481.34 26.1121 Q1490.5 26.1121 1495.81 32.0264 Q1501.15 37.9003 1501.15 48.0275 M1493.7 45.84 Q1493.62 39.7232 1490.26 36.0774 Q1486.94 32.4315 1481.43 32.4315 Q1475.19 32.4315 1471.42 35.9558 Q1467.69 39.4801 1467.13 45.8805 L1493.7 45.84 Z" fill="#000000" fill-rule="nonzero" fill-opacity="1" /><path clip-path="url(#clip850)" d="M1560.3 20.1573 L1549.2 50.2555 L1571.44 50.2555 L1560.3 20.1573 M1555.68 12.096 L1564.96 12.096 L1588.01 72.576 L1579.5 72.576 L1573.99 57.061 L1546.73 57.061 L1541.22 72.576 L1532.59 72.576 L1555.68 12.096 Z" fill="#000000" fill-rule="nonzero" fill-opacity="1" /><path clip-path="url(#clip850)" d="M1634.23 45.1919 L1634.23 72.576 L1626.77 72.576 L1626.77 45.4349 Q1626.77 38.994 1624.26 35.7938 Q1621.75 32.5936 1616.73 32.5936 Q1610.69 32.5936 1607.21 36.4419 Q1603.72 40.2903 1603.72 46.9338 L1603.72 72.576 L1596.23 72.576 L1596.23 27.2059 L1603.72 27.2059 L1603.72 34.2544 Q1606.4 30.163 1610 28.1376 Q1613.65 26.1121 1618.39 26.1121 Q1626.21 26.1121 1630.22 30.9732 Q1634.23 35.7938 1634.23 45.1919 Z" fill="#000000" fill-rule="nonzero" fill-opacity="1" /><path clip-path="url(#clip850)" d="M1669.71 49.7694 Q1660.68 49.7694 1657.19 51.8354 Q1653.71 53.9013 1653.71 58.8839 Q1653.71 62.8538 1656.3 65.2034 Q1658.94 67.5124 1663.43 67.5124 Q1669.63 67.5124 1673.36 63.1374 Q1677.12 58.7219 1677.12 51.4303 L1677.12 49.7694 L1669.71 49.7694 M1684.58 46.6907 L1684.58 72.576 L1677.12 72.576 L1677.12 65.6895 Q1674.57 69.8214 1670.77 71.8063 Q1666.96 73.7508 1661.45 73.7508 Q1654.48 73.7508 1650.35 69.8619 Q1646.26 65.9325 1646.26 59.3701 Q1646.26 51.7138 1651.36 47.825 Q1656.51 43.9361 1666.67 43.9361 L1677.12 43.9361 L1677.12 43.2069 Q1677.12 38.0623 1673.72 35.2672 Q1670.36 32.4315 1664.24 32.4315 Q1660.35 32.4315 1656.67 33.3632 Q1652.98 34.295 1649.58 36.1584 L1649.58 29.2718 Q1653.67 27.692 1657.52 26.9223 Q1661.37 26.1121 1665.01 26.1121 Q1674.86 26.1121 1679.72 31.2163 Q1684.58 36.3204 1684.58 46.6907 Z" fill="#000000" fill-rule="nonzero" fill-opacity="1" /><path clip-path="url(#clip850)" d="M1699.93 9.54393 L1707.39 9.54393 L1707.39 72.576 L1699.93 72.576 L1699.93 9.54393 Z" fill="#000000" fill-rule="nonzero" fill-opacity="1" /><path clip-path="url(#clip850)" d="M1741.86 76.7889 Q1738.7 84.8907 1735.7 87.3618 Q1732.7 89.8329 1727.68 89.8329 L1721.73 89.8329 L1721.73 83.5945 L1726.1 83.5945 Q1729.18 83.5945 1730.88 82.1361 Q1732.58 80.6778 1734.65 75.2496 L1735.98 71.8468 L1717.63 27.2059 L1725.53 27.2059 L1739.71 62.6918 L1753.89 27.2059 L1761.79 27.2059 L1741.86 76.7889 Z" fill="#000000" fill-rule="nonzero" fill-opacity="1" /><path clip-path="url(#clip850)" d="M1801 28.5427 L1801 35.5912 Q1797.84 33.9709 1794.44 33.1607 Q1791.04 32.3505 1787.39 32.3505 Q1781.84 32.3505 1779.05 34.0519 Q1776.29 35.7533 1776.29 39.156 Q1776.29 41.7486 1778.28 43.2475 Q1780.26 44.7058 1786.26 46.0426 L1788.81 46.6097 Q1796.75 48.3111 1800.07 51.4303 Q1803.43 54.509 1803.43 60.0587 Q1803.43 66.3781 1798.41 70.0644 Q1793.43 73.7508 1784.68 73.7508 Q1781.03 73.7508 1777.06 73.0216 Q1773.13 72.3329 1768.76 70.9151 L1768.76 63.2184 Q1772.89 65.3654 1776.9 66.4591 Q1780.91 67.5124 1784.84 67.5124 Q1790.1 67.5124 1792.94 65.73 Q1795.78 63.9071 1795.78 60.6258 Q1795.78 57.5877 1793.71 55.9673 Q1791.68 54.3469 1784.76 52.8481 L1782.16 52.2405 Q1775.24 50.7821 1772.16 47.7845 Q1769.08 44.7463 1769.08 39.4801 Q1769.08 33.0797 1773.62 29.5959 Q1778.15 26.1121 1786.5 26.1121 Q1790.63 26.1121 1794.28 26.7198 Q1797.92 27.3274 1801 28.5427 Z" fill="#000000" fill-rule="nonzero" fill-opacity="1" /><path clip-path="url(#clip850)" d="M1815.3 27.2059 L1822.75 27.2059 L1822.75 72.576 L1815.3 72.576 L1815.3 27.2059 M1815.3 9.54393 L1822.75 9.54393 L1822.75 18.9825 L1815.3 18.9825 L1815.3 9.54393 Z" fill="#000000" fill-rule="nonzero" fill-opacity="1" /><path clip-path="url(#clip850)" d="M1867.27 28.5427 L1867.27 35.5912 Q1864.11 33.9709 1860.71 33.1607 Q1857.31 32.3505 1853.66 32.3505 Q1848.11 32.3505 1845.32 34.0519 Q1842.56 35.7533 1842.56 39.156 Q1842.56 41.7486 1844.55 43.2475 Q1846.53 44.7058 1852.53 46.0426 L1855.08 46.6097 Q1863.02 48.3111 1866.34 51.4303 Q1869.7 54.509 1869.7 60.0587 Q1869.7 66.3781 1864.68 70.0644 Q1859.7 73.7508 1850.95 73.7508 Q1847.3 73.7508 1843.33 73.0216 Q1839.4 72.3329 1835.03 70.9151 L1835.03 63.2184 Q1839.16 65.3654 1843.17 66.4591 Q1847.18 67.5124 1851.11 67.5124 Q1856.38 67.5124 1859.21 65.73 Q1862.05 63.9071 1862.05 60.6258 Q1862.05 57.5877 1859.98 55.9673 Q1857.96 54.3469 1851.03 52.8481 L1848.44 52.2405 Q1841.51 50.7821 1838.43 47.7845 Q1835.35 44.7463 1835.35 39.4801 Q1835.35 33.0797 1839.89 29.5959 Q1844.43 26.1121 1852.77 26.1121 Q1856.9 26.1121 1860.55 26.7198 Q1864.2 27.3274 1867.27 28.5427 Z" fill="#000000" fill-rule="nonzero" fill-opacity="1" /><polyline clip-path="url(#clip852)" style="stroke:#0000ff; stroke-linecap:round; stroke-linejoin:round; stroke-width:8; stroke-opacity:1; fill:none" points="405.475,160.256 457.733,667.94 540.092,1071.99 569.774,1042.76 668.856,1004.75 769.61,1032.79 958.157,794.861 1162.17,643.546 1318.53,568.185 1668.87,542.198 2073.14,576.346 2265.03,631.309 "/>
<circle clip-path="url(#clip852)" cx="405.475" cy="160.256" r="21.6" fill="#0000ff" fill-rule="evenodd" fill-opacity="1" stroke="#000000" stroke-opacity="1" stroke-width="3.2"/>
<circle clip-path="url(#clip852)" cx="457.733" cy="667.94" r="21.6" fill="#0000ff" fill-rule="evenodd" fill-opacity="1" stroke="#000000" stroke-opacity="1" stroke-width="3.2"/>
<circle clip-path="url(#clip852)" cx="540.092" cy="1071.99" r="21.6" fill="#0000ff" fill-rule="evenodd" fill-opacity="1" stroke="#000000" stroke-opacity="1" stroke-width="3.2"/>
<circle clip-path="url(#clip852)" cx="569.774" cy="1042.76" r="21.6" fill="#0000ff" fill-rule="evenodd" fill-opacity="1" stroke="#000000" stroke-opacity="1" stroke-width="3.2"/>
<circle clip-path="url(#clip852)" cx="668.856" cy="1004.75" r="21.6" fill="#0000ff" fill-rule="evenodd" fill-opacity="1" stroke="#000000" stroke-opacity="1" stroke-width="3.2"/>
<circle clip-path="url(#clip852)" cx="769.61" cy="1032.79" r="21.6" fill="#0000ff" fill-rule="evenodd" fill-opacity="1" stroke="#000000" stroke-opacity="1" stroke-width="3.2"/>
<circle clip-path="url(#clip852)" cx="958.157" cy="794.861" r="21.6" fill="#0000ff" fill-rule="evenodd" fill-opacity="1" stroke="#000000" stroke-opacity="1" stroke-width="3.2"/>
<circle clip-path="url(#clip852)" cx="1162.17" cy="643.546" r="21.6" fill="#0000ff" fill-rule="evenodd" fill-opacity="1" stroke="#000000" stroke-opacity="1" stroke-width="3.2"/>
<circle clip-path="url(#clip852)" cx="1318.53" cy="568.185" r="21.6" fill="#0000ff" fill-rule="evenodd" fill-opacity="1" stroke="#000000" stroke-opacity="1" stroke-width="3.2"/>
<circle clip-path="url(#clip852)" cx="1668.87" cy="542.198" r="21.6" fill="#0000ff" fill-rule="evenodd" fill-opacity="1" stroke="#000000" stroke-opacity="1" stroke-width="3.2"/>
<circle clip-path="url(#clip852)" cx="2073.14" cy="576.346" r="21.6" fill="#0000ff" fill-rule="evenodd" fill-opacity="1" stroke="#000000" stroke-opacity="1" stroke-width="3.2"/>
<circle clip-path="url(#clip852)" cx="2265.03" cy="631.309" r="21.6" fill="#0000ff" fill-rule="evenodd" fill-opacity="1" stroke="#000000" stroke-opacity="1" stroke-width="3.2"/>
<polyline clip-path="url(#clip852)" style="stroke:#ff0000; stroke-linecap:round; stroke-linejoin:round; stroke-width:8; stroke-opacity:1; fill:none" stroke-dasharray="32, 20" points="338.375,569.81 396.277,1192.22 450.417,1386.4 495.568,1325.91 586.079,1325.63 678.262,1198.99 855.731,1118.1 1067.69,1291.24 1274.42,1263.96 1677.86,1221.17 2118.29,1034.46 2294.08,1227.52 "/>
<path clip-path="url(#clip852)" d="M314.375 545.81 L314.375 593.81 L362.375 593.81 L362.375 545.81 L314.375 545.81 Z" fill="#ff0000" fill-rule="evenodd" fill-opacity="1" stroke="#000000" stroke-opacity="1" stroke-width="3.2"/>
<path clip-path="url(#clip852)" d="M372.277 1168.22 L372.277 1216.22 L420.277 1216.22 L420.277 1168.22 L372.277 1168.22 Z" fill="#ff0000" fill-rule="evenodd" fill-opacity="1" stroke="#000000" stroke-opacity="1" stroke-width="3.2"/>
<path clip-path="url(#clip852)" d="M426.417 1362.4 L426.417 1410.4 L474.417 1410.4 L474.417 1362.4 L426.417 1362.4 Z" fill="#ff0000" fill-rule="evenodd" fill-opacity="1" stroke="#000000" stroke-opacity="1" stroke-width="3.2"/>
<path clip-path="url(#clip852)" d="M471.568 1301.91 L471.568 1349.91 L519.568 1349.91 L519.568 1301.91 L471.568 1301.91 Z" fill="#ff0000" fill-rule="evenodd" fill-opacity="1" stroke="#000000" stroke-opacity="1" stroke-width="3.2"/>
<path clip-path="url(#clip852)" d="M562.079 1301.63 L562.079 1349.63 L610.079 1349.63 L610.079 1301.63 L562.079 1301.63 Z" fill="#ff0000" fill-rule="evenodd" fill-opacity="1" stroke="#000000" stroke-opacity="1" stroke-width="3.2"/>
<path clip-path="url(#clip852)" d="M654.262 1174.99 L654.262 1222.99 L702.262 1222.99 L702.262 1174.99 L654.262 1174.99 Z" fill="#ff0000" fill-rule="evenodd" fill-opacity="1" stroke="#000000" stroke-opacity="1" stroke-width="3.2"/>
<path clip-path="url(#clip852)" d="M831.731 1094.1 L831.731 1142.1 L879.731 1142.1 L879.731 1094.1 L831.731 1094.1 Z" fill="#ff0000" fill-rule="evenodd" fill-opacity="1" stroke="#000000" stroke-opacity="1" stroke-width="3.2"/>
<path clip-path="url(#clip852)" d="M1043.69 1267.24 L1043.69 1315.24 L1091.69 1315.24 L1091.69 1267.24 L1043.69 1267.24 Z" fill="#ff0000" fill-rule="evenodd" fill-opacity="1" stroke="#000000" stroke-opacity="1" stroke-width="3.2"/>
<path clip-path="url(#clip852)" d="M1250.42 1239.96 L1250.42 1287.96 L1298.42 1287.96 L1298.42 1239.96 L1250.42 1239.96 Z" fill="#ff0000" fill-rule="evenodd" fill-opacity="1" stroke="#000000" stroke-opacity="1" stroke-width="3.2"/>
<path clip-path="url(#clip852)" d="M1653.86 1197.17 L1653.86 1245.17 L1701.86 1245.17 L1701.86 1197.17 L1653.86 1197.17 Z" fill="#ff0000" fill-rule="evenodd" fill-opacity="1" stroke="#000000" stroke-opacity="1" stroke-width="3.2"/>
<path clip-path="url(#clip852)" d="M2094.29 1010.46 L2094.29 1058.46 L2142.29 1058.46 L2142.29 1010.46 L2094.29 1010.46 Z" fill="#ff0000" fill-rule="evenodd" fill-opacity="1" stroke="#000000" stroke-opacity="1" stroke-width="3.2"/>
<path clip-path="url(#clip852)" d="M2270.08 1203.52 L2270.08 1251.52 L2318.08 1251.52 L2318.08 1203.52 L2270.08 1203.52 Z" fill="#ff0000" fill-rule="evenodd" fill-opacity="1" stroke="#000000" stroke-opacity="1" stroke-width="3.2"/>
<path clip-path="url(#clip850)" d="M1726.7 322.316 L2283.65 322.316 L2283.65 166.796 L1726.7 166.796  Z" fill="#ffffff" fill-rule="evenodd" fill-opacity="1"/>
<polyline clip-path="url(#clip850)" style="stroke:#000000; stroke-linecap:round; stroke-linejoin:round; stroke-width:4; stroke-opacity:1; fill:none" points="1726.7,322.316 2283.65,322.316 2283.65,166.796 1726.7,166.796 1726.7,322.316 "/>
<polyline clip-path="url(#clip850)" style="stroke:#0000ff; stroke-linecap:round; stroke-linejoin:round; stroke-width:8; stroke-opacity:1; fill:none" points="1749.73,218.636 1887.94,218.636 "/>
<circle clip-path="url(#clip850)" cx="1818.83" cy="218.636" r="19.1949" fill="#0000ff" fill-rule="evenodd" fill-opacity="1" stroke="#000000" stroke-opacity="1" stroke-width="3.15077"/>
<path clip-path="url(#clip850)" d="M1910.97 201.356 L1930.83 201.356 L1930.83 205.291 L1915.65 205.291 L1915.65 215.476 L1929.35 215.476 L1929.35 219.411 L1915.65 219.411 L1915.65 235.916 L1910.97 235.916 L1910.97 201.356 Z" fill="#000000" fill-rule="nonzero" fill-opacity="1" /><path clip-path="url(#clip850)" d="M1935.02 225.684 L1935.02 209.99 L1939.28 209.99 L1939.28 225.522 Q1939.28 229.203 1940.71 231.055 Q1942.15 232.883 1945.02 232.883 Q1948.47 232.883 1950.46 230.684 Q1952.47 228.485 1952.47 224.689 L1952.47 209.99 L1956.73 209.99 L1956.73 235.916 L1952.47 235.916 L1952.47 231.934 Q1950.92 234.295 1948.86 235.453 Q1946.83 236.587 1944.12 236.587 Q1939.65 236.587 1937.33 233.809 Q1935.02 231.031 1935.02 225.684 M1945.74 209.365 L1945.74 209.365 Z" fill="#000000" fill-rule="nonzero" fill-opacity="1" /><path clip-path="url(#clip850)" d="M1965.51 199.897 L1969.77 199.897 L1969.77 235.916 L1965.51 235.916 L1965.51 199.897 Z" fill="#000000" fill-rule="nonzero" fill-opacity="1" /><path clip-path="url(#clip850)" d="M1978.68 199.897 L1982.94 199.897 L1982.94 235.916 L1978.68 235.916 L1978.68 199.897 Z" fill="#000000" fill-rule="nonzero" fill-opacity="1" /><path clip-path="url(#clip850)" d="M2028.47 220.268 L2028.47 235.916 L2024.21 235.916 L2024.21 220.407 Q2024.21 216.726 2022.77 214.897 Q2021.34 213.069 2018.47 213.069 Q2015.02 213.069 2013.03 215.268 Q2011.04 217.467 2011.04 221.263 L2011.04 235.916 L2006.76 235.916 L2006.76 199.897 L2011.04 199.897 L2011.04 214.018 Q2012.57 211.68 2014.63 210.522 Q2016.71 209.365 2019.42 209.365 Q2023.89 209.365 2026.18 212.143 Q2028.47 214.897 2028.47 220.268 Z" fill="#000000" fill-rule="nonzero" fill-opacity="1" /><path clip-path="url(#clip850)" d="M2036.52 225.684 L2036.52 209.99 L2040.78 209.99 L2040.78 225.522 Q2040.78 229.203 2042.22 231.055 Q2043.65 232.883 2046.52 232.883 Q2049.97 232.883 2051.96 230.684 Q2053.98 228.485 2053.98 224.689 L2053.98 209.99 L2058.24 209.99 L2058.24 235.916 L2053.98 235.916 L2053.98 231.934 Q2052.43 234.295 2050.37 235.453 Q2048.33 236.587 2045.62 236.587 Q2041.15 236.587 2038.84 233.809 Q2036.52 231.031 2036.52 225.684 M2047.24 209.365 L2047.24 209.365 Z" fill="#000000" fill-rule="nonzero" fill-opacity="1" /><path clip-path="url(#clip850)" d="M2067.01 199.897 L2071.27 199.897 L2071.27 235.916 L2067.01 235.916 L2067.01 199.897 Z" fill="#000000" fill-rule="nonzero" fill-opacity="1" /><path clip-path="url(#clip850)" d="M2080.18 199.897 L2084.44 199.897 L2084.44 235.916 L2080.18 235.916 L2080.18 199.897 Z" fill="#000000" fill-rule="nonzero" fill-opacity="1" /><path clip-path="url(#clip850)" d="M2128.61 214.967 Q2130.2 212.096 2132.43 210.731 Q2134.65 209.365 2137.66 209.365 Q2141.71 209.365 2143.91 212.212 Q2146.11 215.036 2146.11 220.268 L2146.11 235.916 L2141.82 235.916 L2141.82 220.407 Q2141.82 216.68 2140.51 214.874 Q2139.19 213.069 2136.48 213.069 Q2133.17 213.069 2131.25 215.268 Q2129.32 217.467 2129.32 221.263 L2129.32 235.916 L2125.04 235.916 L2125.04 220.407 Q2125.04 216.657 2123.72 214.874 Q2122.4 213.069 2119.65 213.069 Q2116.38 213.069 2114.46 215.291 Q2112.54 217.49 2112.54 221.263 L2112.54 235.916 L2108.26 235.916 L2108.26 209.99 L2112.54 209.99 L2112.54 214.018 Q2114 211.633 2116.04 210.499 Q2118.07 209.365 2120.88 209.365 Q2123.7 209.365 2125.67 210.8 Q2127.66 212.235 2128.61 214.967 Z" fill="#000000" fill-rule="nonzero" fill-opacity="1" /><path clip-path="url(#clip850)" d="M2164.65 212.976 Q2161.22 212.976 2159.23 215.661 Q2157.24 218.323 2157.24 222.976 Q2157.24 227.629 2159.21 230.314 Q2161.2 232.976 2164.65 232.976 Q2168.05 232.976 2170.04 230.291 Q2172.03 227.606 2172.03 222.976 Q2172.03 218.37 2170.04 215.684 Q2168.05 212.976 2164.65 212.976 M2164.65 209.365 Q2170.2 209.365 2173.38 212.976 Q2176.55 216.587 2176.55 222.976 Q2176.55 229.342 2173.38 232.976 Q2170.2 236.587 2164.65 236.587 Q2159.07 236.587 2155.9 232.976 Q2152.75 229.342 2152.75 222.976 Q2152.75 216.587 2155.9 212.976 Q2159.07 209.365 2164.65 209.365 Z" fill="#000000" fill-rule="nonzero" fill-opacity="1" /><path clip-path="url(#clip850)" d="M2200.67 213.925 L2200.67 199.897 L2204.93 199.897 L2204.93 235.916 L2200.67 235.916 L2200.67 232.027 Q2199.32 234.342 2197.26 235.476 Q2195.23 236.587 2192.36 236.587 Q2187.66 236.587 2184.69 232.837 Q2181.75 229.087 2181.75 222.976 Q2181.75 216.865 2184.69 213.115 Q2187.66 209.365 2192.36 209.365 Q2195.23 209.365 2197.26 210.499 Q2199.32 211.61 2200.67 213.925 M2186.15 222.976 Q2186.15 227.675 2188.07 230.36 Q2190.02 233.022 2193.4 233.022 Q2196.78 233.022 2198.72 230.36 Q2200.67 227.675 2200.67 222.976 Q2200.67 218.277 2198.72 215.615 Q2196.78 212.93 2193.4 212.93 Q2190.02 212.93 2188.07 215.615 Q2186.15 218.277 2186.15 222.976 Z" fill="#000000" fill-rule="nonzero" fill-opacity="1" /><path clip-path="url(#clip850)" d="M2235.88 221.888 L2235.88 223.971 L2216.29 223.971 Q2216.57 228.369 2218.93 230.684 Q2221.31 232.976 2225.55 232.976 Q2228 232.976 2230.3 232.374 Q2232.61 231.772 2234.88 230.569 L2234.88 234.596 Q2232.59 235.568 2230.18 236.078 Q2227.77 236.587 2225.3 236.587 Q2219.09 236.587 2215.46 232.976 Q2211.85 229.365 2211.85 223.207 Q2211.85 216.842 2215.27 213.115 Q2218.72 209.365 2224.56 209.365 Q2229.79 209.365 2232.82 212.745 Q2235.88 216.101 2235.88 221.888 M2231.62 220.638 Q2231.57 217.143 2229.65 215.059 Q2227.75 212.976 2224.6 212.976 Q2221.04 212.976 2218.88 214.99 Q2216.75 217.004 2216.43 220.661 L2231.62 220.638 Z" fill="#000000" fill-rule="nonzero" fill-opacity="1" /><path clip-path="url(#clip850)" d="M2242.87 199.897 L2247.12 199.897 L2247.12 235.916 L2242.87 235.916 L2242.87 199.897 Z" fill="#000000" fill-rule="nonzero" fill-opacity="1" /><polyline clip-path="url(#clip850)" style="stroke:#ff0000; stroke-linecap:round; stroke-linejoin:round; stroke-width:8; stroke-opacity:1; fill:none" stroke-dasharray="32, 20" points="1749.73,270.476 1887.94,270.476 "/>
<path clip-path="url(#clip850)" d="M1797.51 249.148 L1797.51 291.803 L1840.16 291.803 L1840.16 249.148 L1797.51 249.148 Z" fill="#ff0000" fill-rule="evenodd" fill-opacity="1" stroke="#000000" stroke-opacity="1" stroke-width="3.15077"/>
<path clip-path="url(#clip850)" d="M1910.97 253.196 L1915.65 253.196 L1915.65 267.362 L1932.64 267.362 L1932.64 253.196 L1937.31 253.196 L1937.31 287.756 L1932.64 287.756 L1932.64 271.297 L1915.65 271.297 L1915.65 287.756 L1910.97 287.756 L1910.97 253.196 Z" fill="#000000" fill-rule="nonzero" fill-opacity="1" /><path clip-path="url(#clip850)" d="M1958.21 274.723 Q1953.05 274.723 1951.06 275.904 Q1949.07 277.084 1949.07 279.932 Q1949.07 282.2 1950.55 283.543 Q1952.06 284.862 1954.63 284.862 Q1958.17 284.862 1960.3 282.362 Q1962.45 279.839 1962.45 275.672 L1962.45 274.723 L1958.21 274.723 M1966.71 272.964 L1966.71 287.756 L1962.45 287.756 L1962.45 283.821 Q1960.99 286.182 1958.82 287.316 Q1956.64 288.427 1953.49 288.427 Q1949.51 288.427 1947.15 286.205 Q1944.81 283.959 1944.81 280.209 Q1944.81 275.834 1947.73 273.612 Q1950.67 271.39 1956.48 271.39 L1962.45 271.39 L1962.45 270.973 Q1962.45 268.034 1960.51 266.436 Q1958.58 264.816 1955.09 264.816 Q1952.87 264.816 1950.76 265.348 Q1948.65 265.881 1946.71 266.946 L1946.71 263.01 Q1949.05 262.108 1951.25 261.668 Q1953.45 261.205 1955.53 261.205 Q1961.15 261.205 1963.93 264.122 Q1966.71 267.038 1966.71 272.964 Z" fill="#000000" fill-rule="nonzero" fill-opacity="1" /><path clip-path="url(#clip850)" d="M1975.48 251.737 L1979.74 251.737 L1979.74 287.756 L1975.48 287.756 L1975.48 251.737 Z" fill="#000000" fill-rule="nonzero" fill-opacity="1" /><path clip-path="url(#clip850)" d="M2001.78 251.737 L2001.78 255.279 L1997.71 255.279 Q1995.41 255.279 1994.51 256.205 Q1993.63 257.131 1993.63 259.538 L1993.63 261.83 L2000.64 261.83 L2000.64 265.14 L1993.63 265.14 L1993.63 287.756 L1989.35 287.756 L1989.35 265.14 L1985.27 265.14 L1985.27 261.83 L1989.35 261.83 L1989.35 260.024 Q1989.35 255.696 1991.36 253.728 Q1993.38 251.737 1997.75 251.737 L2001.78 251.737 Z" fill="#000000" fill-rule="nonzero" fill-opacity="1" /><path clip-path="url(#clip850)" d="M2041.96 272.108 L2041.96 287.756 L2037.7 287.756 L2037.7 272.247 Q2037.7 268.566 2036.27 266.737 Q2034.83 264.909 2031.96 264.909 Q2028.52 264.909 2026.52 267.108 Q2024.53 269.307 2024.53 273.103 L2024.53 287.756 L2020.25 287.756 L2020.25 251.737 L2024.53 251.737 L2024.53 265.858 Q2026.06 263.52 2028.12 262.362 Q2030.2 261.205 2032.91 261.205 Q2037.38 261.205 2039.67 263.983 Q2041.96 266.737 2041.96 272.108 Z" fill="#000000" fill-rule="nonzero" fill-opacity="1" /><path clip-path="url(#clip850)" d="M2050.02 277.524 L2050.02 261.83 L2054.28 261.83 L2054.28 277.362 Q2054.28 281.043 2055.71 282.895 Q2057.15 284.723 2060.02 284.723 Q2063.47 284.723 2065.46 282.524 Q2067.47 280.325 2067.47 276.529 L2067.47 261.83 L2071.73 261.83 L2071.73 287.756 L2067.47 287.756 L2067.47 283.774 Q2065.92 286.135 2063.86 287.293 Q2061.83 288.427 2059.12 288.427 Q2054.65 288.427 2052.33 285.649 Q2050.02 282.871 2050.02 277.524 M2060.74 261.205 L2060.74 261.205 Z" fill="#000000" fill-rule="nonzero" fill-opacity="1" /><path clip-path="url(#clip850)" d="M2080.51 251.737 L2084.76 251.737 L2084.76 287.756 L2080.51 287.756 L2080.51 251.737 Z" fill="#000000" fill-rule="nonzero" fill-opacity="1" /><path clip-path="url(#clip850)" d="M2093.68 251.737 L2097.94 251.737 L2097.94 287.756 L2093.68 287.756 L2093.68 251.737 Z" fill="#000000" fill-rule="nonzero" fill-opacity="1" /><path clip-path="url(#clip850)" d="M2142.1 266.807 Q2143.7 263.936 2145.92 262.571 Q2148.14 261.205 2151.15 261.205 Q2155.2 261.205 2157.4 264.052 Q2159.6 266.876 2159.6 272.108 L2159.6 287.756 L2155.32 287.756 L2155.32 272.247 Q2155.32 268.52 2154 266.714 Q2152.68 264.909 2149.97 264.909 Q2146.66 264.909 2144.74 267.108 Q2142.82 269.307 2142.82 273.103 L2142.82 287.756 L2138.54 287.756 L2138.54 272.247 Q2138.54 268.497 2137.22 266.714 Q2135.9 264.909 2133.14 264.909 Q2129.88 264.909 2127.96 267.131 Q2126.04 269.33 2126.04 273.103 L2126.04 287.756 L2121.76 287.756 L2121.76 261.83 L2126.04 261.83 L2126.04 265.858 Q2127.5 263.473 2129.53 262.339 Q2131.57 261.205 2134.37 261.205 Q2137.19 261.205 2139.16 262.64 Q2141.15 264.075 2142.1 266.807 Z" fill="#000000" fill-rule="nonzero" fill-opacity="1" /><path clip-path="url(#clip850)" d="M2178.14 264.816 Q2174.72 264.816 2172.73 267.501 Q2170.74 270.163 2170.74 274.816 Q2170.74 279.469 2172.7 282.154 Q2174.69 284.816 2178.14 284.816 Q2181.55 284.816 2183.54 282.131 Q2185.53 279.446 2185.53 274.816 Q2185.53 270.21 2183.54 267.524 Q2181.55 264.816 2178.14 264.816 M2178.14 261.205 Q2183.7 261.205 2186.87 264.816 Q2190.04 268.427 2190.04 274.816 Q2190.04 281.182 2186.87 284.816 Q2183.7 288.427 2178.14 288.427 Q2172.57 288.427 2169.39 284.816 Q2166.25 281.182 2166.25 274.816 Q2166.25 268.427 2169.39 264.816 Q2172.57 261.205 2178.14 261.205 Z" fill="#000000" fill-rule="nonzero" fill-opacity="1" /><path clip-path="url(#clip850)" d="M2214.16 265.765 L2214.16 251.737 L2218.42 251.737 L2218.42 287.756 L2214.16 287.756 L2214.16 283.867 Q2212.82 286.182 2210.76 287.316 Q2208.72 288.427 2205.85 288.427 Q2201.15 288.427 2198.19 284.677 Q2195.25 280.927 2195.25 274.816 Q2195.25 268.705 2198.19 264.955 Q2201.15 261.205 2205.85 261.205 Q2208.72 261.205 2210.76 262.339 Q2212.82 263.45 2214.16 265.765 M2199.65 274.816 Q2199.65 279.515 2201.57 282.2 Q2203.51 284.862 2206.89 284.862 Q2210.27 284.862 2212.22 282.2 Q2214.16 279.515 2214.16 274.816 Q2214.16 270.117 2212.22 267.455 Q2210.27 264.77 2206.89 264.77 Q2203.51 264.77 2201.57 267.455 Q2199.65 270.117 2199.65 274.816 Z" fill="#000000" fill-rule="nonzero" fill-opacity="1" /><path clip-path="url(#clip850)" d="M2249.37 273.728 L2249.37 275.811 L2229.79 275.811 Q2230.06 280.209 2232.43 282.524 Q2234.81 284.816 2239.05 284.816 Q2241.5 284.816 2243.79 284.214 Q2246.11 283.612 2248.37 282.409 L2248.37 286.436 Q2246.08 287.408 2243.68 287.918 Q2241.27 288.427 2238.79 288.427 Q2232.59 288.427 2228.95 284.816 Q2225.34 281.205 2225.34 275.047 Q2225.34 268.682 2228.77 264.955 Q2232.22 261.205 2238.05 261.205 Q2243.28 261.205 2246.31 264.585 Q2249.37 267.941 2249.37 273.728 M2245.11 272.478 Q2245.06 268.983 2243.14 266.899 Q2241.25 264.816 2238.1 264.816 Q2234.53 264.816 2232.38 266.83 Q2230.25 268.844 2229.93 272.501 L2245.11 272.478 Z" fill="#000000" fill-rule="nonzero" fill-opacity="1" /><path clip-path="url(#clip850)" d="M2256.36 251.737 L2260.62 251.737 L2260.62 287.756 L2256.36 287.756 L2256.36 251.737 Z" fill="#000000" fill-rule="nonzero" fill-opacity="1" /></svg>
